<?xml version="1.0" encoding="iso-8859-1"?>
<!-- Generator: Adobe Illustrator 19.0.0, SVG Export Plug-In . SVG Version: 6.00 Build 0)  -->
<svg version="1.1" id="Capa_1" xmlns="http://www.w3.org/2000/svg" xmlns:xlink="http://www.w3.org/1999/xlink" x="0px" y="0px"
	 viewBox="0 0 512 512" style="enable-background:new 0 0 512 512;" xml:space="preserve">
<path style="fill:#CAE6F9;" d="M512,256c0,11.912-0.815,23.636-2.393,35.109c-0.449,3.344-0.972,6.656-1.567,9.958
	C486.755,420.958,382.004,512,256,512C130.111,512,25.443,421.125,4.012,301.401c-0.24-1.327-0.46-2.654-0.679-3.992
	C1.139,283.93,0,270.096,0,256c0-15.987,1.463-31.629,4.274-46.801c0.251-1.379,0.512-2.769,0.805-4.138
	C28.693,88.074,132.054,0,256,0C397.385,0,512,114.615,512,256z"/>
<g>
	<path style="fill:#010101;" d="M98.163,207.839c0,0,8.368,1.195,15.635,2.234v86.325l-15.635,2.234v2.774h49.426v-2.774
		c0,0-8.368-1.195-15.635-2.234v-86.325l15.635-2.234v-2.774H98.163V207.839z"/>
	<path style="fill:#010101;" d="M56.811,231.549c0-20.679-19.174-21.932-28.244-21.932v86.779
		c7.262,1.034,15.632,2.236,15.632,2.236v2.769H4.012c-0.24-1.327-0.46-2.654-0.679-3.992l7.074-1.014v-86.319
		c-2.027-0.293-4.138-0.596-6.134-0.878c0.251-1.379,0.512-2.769,0.805-4.138h23.489c17.899,0,43.875-1.233,45.641,18.923
		c1.891,21.567-19.675,33.792-39.34,37.073v-4.033C34.868,257.024,56.811,252.228,56.811,231.549z"/>
	<path style="fill:#010101;" d="M262.276,209.348l7.395-1.51v-2.774h-34.579v2.774c0,0,6.13,1.252,11.244,2.296
		c-6.854,10.165-14.104,20.222-21.234,29.713l-21.614-29.921l12.943-2.088v-2.774h-43.785v2.774c0,0,5.231,0.843,10.44,1.683
		c4.663,5.945,18.319,23.299,33.281,41.762c-17.139,22.087-32.215,39.549-37.375,45.444l-9.715,1.903v2.774h36.06v-2.774
		c0,0-6.208-1.215-11.524-2.256c8.104-15.016,17.301-28.672,26.281-40.5c19.802,24.321,40.736,49.068,45.512,51.079l7.06-1.261
		l-43.909-60.784C245.221,224.872,259.36,211.951,262.276,209.348z"/>
	<path style="fill:#010101;" d="M389.705,296.542c-7.576-15.099-28.505-74.115-32.977-86.789l11.713-1.912v-2.779h-43.112v2.779
		c0,0,5.235,0.857,10.47,1.714l-33.907,86.779l-12.33,2.299v2.769h37.825v-2.769c0,0-6.269-1.17-11.807-2.205
		c1.296-5.768,4.838-21.002,9.822-38.348c6.635-1.118,18.066-2.518,31.19-1.829l13.97,40.135l-15.684,2.247v2.769h49.424v-2.769
		C404.302,298.632,396.769,297.556,389.705,296.542z M327.084,252.353c4.075-13.657,8.955-28.097,14.273-39.905l13.887,39.905
		H327.084z"/>
	<path style="fill:#010101;" d="M482.429,249.919c13.793-6.875,20.47-17.816,20.47-26.436c0-13.615-16.144-18.422-28.244-18.422
		s-21.42,0-21.42,0h-33.792v2.779c0,0,8.37,1.191,15.642,2.236v86.319l-15.642,2.236v2.769h49.424v-2.769
		c0,0-8.359-1.202-15.632-2.236v-39.915c4.629-0.104,8.934-0.533,12.894-1.264c9.289,14.524,32.872,37.324,41.911,45.85
		c0.596-3.302,1.118-6.614,1.567-9.958C497.842,275.832,486.609,257.076,482.429,249.919z M453.235,252.792v-43.175
		c18.16-0.46,34.408,5.162,30.25,25.213C480.214,250.587,461.228,252.635,453.235,252.792z"/>
</g>
<g>
</g>
<g>
</g>
<g>
</g>
<g>
</g>
<g>
</g>
<g>
</g>
<g>
</g>
<g>
</g>
<g>
</g>
<g>
</g>
<g>
</g>
<g>
</g>
<g>
</g>
<g>
</g>
<g>
</g>
</svg>
