<?xml version="1.0" encoding="iso-8859-1"?>
<!-- Generator: Adobe Illustrator 19.0.0, SVG Export Plug-In . SVG Version: 6.00 Build 0)  -->
<svg version="1.1" id="Capa_1" xmlns="http://www.w3.org/2000/svg" xmlns:xlink="http://www.w3.org/1999/xlink" x="0px" y="0px"
	 viewBox="0 0 512 512" style="enable-background:new 0 0 512 512;" xml:space="preserve">
<path style="fill:#F2F2F2;" d="M512,256c0,125.983-91,230.713-210.86,252.029C286.49,510.642,271.402,512,256,512
	s-30.49-1.358-45.14-3.971C91,486.713,0,381.983,0,256c0-33.74,6.531-65.964,18.39-95.462c5.444-13.521,11.995-26.478,19.571-38.745
	C83.038,48.713,163.83,0,256,0s172.962,48.713,218.039,121.793c7.565,12.257,14.117,25.203,19.55,38.713
	C505.469,190.015,512,222.25,512,256z"/>
<g>
	<path style="fill:#0078C5;" d="M493.401,125.325l-19.362-3.532l-27.732-5.057l-8.652-20.992l-47.104-9.54l-10.564-29.581
		L256,36.854L132.012,56.623l-10.574,29.581l-47.094,9.54l-8.662,20.992l-27.721,5.057l-19.372,3.532c0,0-0.648,13.709-0.199,35.213
		c1.024,47.741,7.502,133.914,38.651,193.787c33.228,63.864,102.87,121.26,153.819,153.704C225.51,510.642,240.598,512,256,512
		s30.49-1.358,45.14-3.971c50.949-32.455,120.581-89.84,153.809-153.704c31.159-59.883,37.627-146.077,38.64-193.818
		C494.049,139.024,493.401,125.325,493.401,125.325z M395.128,391.534C329.979,461.897,291.474,482.471,256,497.445
		c-35.485-14.973-73.979-35.547-139.139-105.911C38.379,306.761,53.896,149.18,53.896,149.18l39.121-7.638l8.579-20.031l38.17-6.687
		l9.54-24.806L256,71.889l106.684,18.129l9.54,24.806l38.17,6.687l8.589,20.031l39.121,7.638
		C458.104,149.18,473.621,306.761,395.128,391.534z"/>
	<path style="fill:#0078C5;" d="M246.317,111.011v352.398c-52.803-29.893-78.88-138.028-78.88-138.028l-26.078,34.35
		c-52.803-71.246-51.524-183.198-51.524-183.198c12.785-10.467,25.447-19.274,37.699-26.66
		c-5.601,89.662,20.028,145.452,20.028,145.452l10.333-13.205c-12.49-68.232-10.467-121.951-8.73-144.134
		c13.549-6.736,26.316-11.794,37.87-15.591c-7.242,136.635,21.745,217.453,21.745,217.453l-1.832-223.13
		C231.07,110.888,246.317,111.011,246.317,111.011z"/>
	<path style="fill:#0078C5;" d="M376.675,259.992c30.908-22.81,61.116-56.101,31.211-86.006
		c-51.837-51.837-140.11-62.976-140.11-62.976v352.402c22.737-9.54,103.215-76.34,124.844-131.678S376.675,259.992,376.675,259.992z
		 M307.378,389.622V296.95c16.938-10.992,35.391-17.638,45.16-4.012C373.53,322.194,307.378,389.622,307.378,389.622z
		 M307.378,256.679V156.17c0,0,68.702,24.806,68.702,45.171C376.08,221.696,307.378,256.679,307.378,256.679z"/>
</g>
<g>
</g>
<g>
</g>
<g>
</g>
<g>
</g>
<g>
</g>
<g>
</g>
<g>
</g>
<g>
</g>
<g>
</g>
<g>
</g>
<g>
</g>
<g>
</g>
<g>
</g>
<g>
</g>
<g>
</g>
</svg>
