<?xml version="1.0" encoding="iso-8859-1"?>
<!-- Generator: Adobe Illustrator 19.0.0, SVG Export Plug-In . SVG Version: 6.00 Build 0)  -->
<svg version="1.1" id="Capa_1" xmlns="http://www.w3.org/2000/svg" xmlns:xlink="http://www.w3.org/1999/xlink" x="0px" y="0px"
	 viewBox="0 0 512 512" style="enable-background:new 0 0 512 512;" xml:space="preserve">
<path style="fill:#333333;" d="M512,256c0,141.385-114.615,256-256,256C120.069,512,8.882,406.058,0.512,272.238
	C0.167,266.867,0,261.454,0,256c0-2.424,0.031-4.848,0.104-7.252c0.313-11.212,1.337-22.246,3.051-33.05
	c0.021-0.136,0.042-0.272,0.073-0.408v-0.01C22.737,93.236,128.47,0,256,0c129.17,0,235.99,95.66,253.482,220.003
	c1.578,11.17,2.435,22.57,2.508,34.147C512,254.767,512,255.383,512,256z"/>
<circle style="fill:#0078C5;" cx="170.318" cy="242.981" r="98.252"/>
<path style="fill:#25A346;" d="M268.255,235.402c-0.209-0.018-0.418-0.013-0.616,0.046c-0.217-0.276-0.476-0.573-0.788-0.74
	c-0.313-0.676-0.493-1.07-0.602-1.321c0.303-0.585,0.412-1.165,0.418-1.71c0.439,0.261,0.767,0.318,1.264,0.195
	c-1.811-16.08-7.484-30.991-16.097-43.761c-0.14,0.085-0.246,0.155-0.395,0.33c-0.845-0.321-1.797,0.076-2.159,0.911
	c-0.319,0.704-0.11,1.283,0.048,1.883c-0.057,0.494,0.103,1.005,0.468,1.38c0.009,0.025,0.688,1.421,0.93,1.936
	c0.189,0.401,0.39,0.509,0.513,0.636v-0.001c0.311,0.47,0.602,1.087,0.903,1.618l-0.426,1.027c-0.314,0.755-0.019,1.239,0.333,2.184
	c-0.036,0.123-0.056,0.251-0.063,0.378c-0.472,0.455-0.665,1.088-0.373,1.922c-0.449,0.193-0.817,0.585-0.961,1.095
	c-1.726,0.469-1.402,1.938-0.907,3.533c0.218,0.705,0.862,1.176,1.568,1.193c0.13,0.179,0.281,0.38,0.473,0.573
	c0.394,1.089,1.015,1.96,1.487,2.778c-0.002,0.419,0.052,0.812,0.126,1.176c-1.504-0.424-2.792-1.063-3.682,0.079
	c-2.127,0.783-0.52,3.128-0.11,5.728c0.185,1.262-0.569,3.228,0.469,5.258c0.505,1.609,0.055,3.077,1.622,3.478l0.704,0.182
	c0.065,0.319,0.192,0.761,0.48,1.176c-0.283,2.452-0.581,2.676-1.019,2.976c-2.324,1.569-2.008,3.843-1.819,5.2
	c0.182,1.314,0.216,1.392-0.642,2.593c-1.234,0.259-1.735,1.025-2.291,2.476c-0.911,2.178-3.027,6.74-3.787,7.634
	c-0.975,0.622-1.736,4.176-0.701,5.237c-0.925,7.195-3.761,7.049-2.497,8.957c-0.741,2.133-0.749,3.753,0.942,5.751
	c0.028,0.818,0.148,2.29,0.389,5.211c0.05,0.605,0.417,1.125,0.942,1.383c0.021,0.24,0.03,0.515,0.036,0.718
	c0.122,3.84,2.301,4.825,5.218,3.554c0.175-0.076,0.376-0.164,0.553-0.206c1.028,2.067,2.742,0.815,4.123-0.028
	c0.171,0.013,0.341-0.003,0.508-0.043c-0.443,1.542,0.072,2.469,0.956,2.795c-1.382,3.186-3.166,4.735-3.959,7.291
	c-0.093,0.3-0.154,2.058-1.212,3.847c-4.466,7.607-3.822,7.191-9.232,12.717c-2.556,2.612-11.386,12.985-20.092,18.233
	c-1.423,0.861-2.914,1.815-2.156,3.322c0.172,0.343,0.457,0.595,0.788,0.753C250.322,310.952,271.309,275.358,268.255,235.402z
	 M259.489,222.213c-0.398-1.623,0.4-1.298,1.111-3.001c0.139-0.333,0.167-0.699,0.084-1.044c0.104-0.037,0.204-0.084,0.297-0.139
	c1.348,3.253,1.18,3.546,1.895,4.014c0.207,0.732,0.559,2.31,1.012,4.368c-0.15-0.024-0.304-0.034-0.457-0.016
	c-0.551-0.297-1.055-0.222-1.56-0.037c-0.616-0.185-2.206,0.083-2.821,0.261C259.414,225.252,260.093,224.692,259.489,222.213z"/>
<polygon style="fill:#00BC5E;" points="249.142,189.812 249.142,189.812 249.142,189.811 "/>
<path style="fill:#25A346;" d="M174.398,341.177c0.748-0.332,0.518-0.239,0.972-0.484c0.434-0.227,0.867-0.572,1.107-0.696
	c1.775-0.954,4.319-1.812,4.653-3.235c1.554-0.462,1.892-1.443,2.098-1.616c0.897-0.288,1.81-0.88,2.135-1.771
	c1.107-0.341,1.65-1.398,2.105-1.941c1.708-0.004,3.457-0.999,5.488-3.121c0.32-0.333,0.481-0.77,0.471-1.207
	c2.41-0.106,3.112-1.135,5.029-3.076c0.135-0.027,0.269-0.073,0.396-0.136c0.521-0.272,0.867-0.333,1.214-0.72
	c0.518-0.576,1.115-1.104,1.746-1.664c2.236-1.98,2.716-2.546,3.265-4.087c0.116-0.327,0.227-0.634,0.346-0.763
	c1.422-1.515,4.549-2.819,5.49-3.155c1.972-0.277,3.207-0.992,5.46-4.29c3.868-5.72,4.016-5.937,4.482-7.799
	c0.701-0.256,0.507-0.369,5.99-6.309c0.859-0.948,3.109-6.289,0.555-7.114c-2.361-1.881-2.894-2.994-4.855-3.099
	c-0.645,0-1.136,0.186-1.387,0.206c-0.322-0.054-0.807-0.282-1.542-0.351c-0.406-0.971-1.064-0.839-2.13-1.366
	c-0.776-0.387-1.365-0.65-2.152-0.662c-0.217-0.132-0.641-0.459-1.186-0.632c0,0,0.001-0.003,0.002-0.004
	c0.499-1.173-0.366-1.879-0.964-2.452c0.214-1.366,0.108-2.642-1.142-3.233c-0.962-1.593-2.948-1.629-3.32-1.875
	c-1.197-0.952-2.248,0.393-4.699-0.324c-0.204-0.92-1.718-2.925-3.811-3.303c-0.472-0.511-0.879-0.861-1.434-1.138
	c-0.129-0.501-0.483-0.929-0.98-1.14c-2.826-1.196-6.308,1.491-7.158,1.184c-0.215-0.126-0.457-1.322-1.76-1.33
	c-0.186-0.001-0.387-0.002-0.531-0.007c-0.393-0.521-0.833-1.512-2.075-1.333c-0.25,0.038-0.482,0.129-0.683,0.26
	c-0.917-0.378-1.863-0.513-2.558,0.19c-1.851,1.872-6.329,2.717-5.88,5.029c0.041,0.201-0.578,0.75-1.037,1.314
	c-2.037-1.45-2.775-1.636-4.15-0.786c-0.682-0.017-1.24,0.313-1.548,0.844c-2.274-0.094-2.52,0.248-2.109-7.498
	c0.036-0.678-0.336-1.312-0.946-1.611c-1.445-0.709-4.656-0.689-4.784-0.674c-0.425,0.052-0.793,0.197-1.087,0.419
	c-0.206,0.043-0.397,0.096-0.577,0.147c0.037-0.334,0.068-0.613,0.096-0.834c0.641-0.616,0.484-1.31,0.73-2.497
	c0.066-0.437-0.068-0.917-0.327-1.28c0.3-0.704,1.595-2.189,0.769-4.049c-0.377-0.854-1.382-1.247-2.237-0.863
	c-0.969,0.429-2.615,0.184-4.23,1.097c-2.123,1.217-2.006,3.333-2.28,4.823c-0.739-0.153-1.727-0.043-2.998,0.727
	c-2.336,1.412-4.406-5.779-4.826-8.281c-0.248-6.587,3.09-9.185,7.141-8.849c1.01,1.735,1.768,1.148,3.579,0.498
	c1.26,0.451,2.687-0.7,2.132-2.276c0.434-0.065,0.839-0.169,1.207-0.263c1.306-0.332,1.469-0.287,1.805,0.111
	c0.449,0.531,1.179,0.731,1.835,0.512l1.122-0.372c0.29,0.336,0.527,0.619,0.663,0.808c-0.611,1.371,0.065,2.328,0.965,2.582
	c0.947,2.395,2.138,6.441,4.425,4.716c0.315-0.231,1.31-0.285,1.557-1.438c0.509-2.381-0.25-4.512-0.918-6.392
	c-0.631-1.773-1.18-3.314-0.72-4.866c1.099-1.134,6.887-5.678,7.646-6.236c0.372-0.254,0.626-0.645,0.709-1.08
	c0.735-0.495,1.05-1.44,0.334-2.546c0.479-0.649,0.62-1.219,0.152-2.169c0.734-0.934,0.982-1.952,1.029-2.848
	c1.258-0.66,1.81-3.099,1.882-3.232c0.549-0.251,1.114-0.465,1.68-0.68c1.816-0.691,3.983-1.452,4.221-2.742
	c0.245-1.344-1.178-1.738-0.723-3.008c0.354-0.99,1.684-1.961,3.126-2.734c-0.117,1.634,2.145,3.645,3.57,2.185
	c1.818-1.864,1.818-1.864,4.912-3.56c0.593-0.326,0.937-0.974,0.874-1.648c-0.183-1.929-2.77-1.539-4.802-2.859
	c0.253-0.56,0.821-1.138,0.45-2.09c0.36-0.664,0.306-1.466-0.542-2.32c2.512-0.199,5.247-0.694,5.305-0.709
	c0.437-0.141,0.784-0.374,1.177-0.626c0.456-0.263,0.763-0.797,0.833-1.326c0.94-0.569,6.255-1.645,1.12-7.652
	c-0.418-0.489-0.813-0.951-1.078-1.421c-0.319-0.562-0.869-0.875-1.509-0.855c-0.06-0.013-0.222-0.087-0.341-0.142
	c-0.227-0.104-0.51-0.236-0.847-0.33c-0.043-0.029-0.079-0.055-0.11-0.077c-0.13-0.653-0.632-1.166-1.267-1.317
	c0.099-0.642-0.138-1.157-0.537-1.619c0-0.02,0-0.041-0.001-0.062c-0.015-0.343-0.082-0.678-0.138-0.932
	c-0.068-0.297-0.212-0.569-0.421-0.791c-1.587-1.686-2.346-2.911-3.004-4.851c-0.712-2.088-4.318-1.145-3.487,1.115
	c0.007,0.022,0.022,0.061,0.036,0.099c-0.501,0.649-0.647,1.225-0.595,2.021c-0.068,0.046-0.154,0.1-0.253,0.163
	c-0.183-0.254-0.414-0.531-0.718-0.777c-0.156-0.441-0.318-0.799-0.386-1.083c0.008-0.055,0.021-0.108,0.032-0.163
	c0.093-0.461,0.263-1.318-0.263-2.224c-0.496-0.844-1.219-1.137-1.798-1.243c-0.165-0.296-0.419-0.544-0.741-0.7
	c-0.242-0.117-0.504-0.385-0.806-0.692c-0.299-0.306-0.639-0.651-1.068-0.962c-0.404-0.294-0.92-0.395-1.407-0.273
	c-0.284,0.071-0.541,0.213-0.748,0.409c-2.656-1.555-6.161,0.183-4.886,3.251c-0.784,0.718-0.719,1.971,0.13,2.607
	c0.007,0.026,0.016,0.054,0.023,0.081c-0.459,0.555-0.636,1.151-0.789,1.572c-0.603,0.334-0.955,1.014-0.855,1.721
	c0.1,0.698,0.276,0.911,1.45,1.879c0.188,0.819,0.63,1.744,0.694,2.36c-1.192,1.221-3.807,1.875-4.381,2.428
	c-0.189-0.438-0.553-0.777-1.005-0.933c-0.254-0.087-0.571-0.202-0.858-0.306l-0.286-0.103c-0.459-0.165-0.971-0.125-1.399,0.114
	c-0.292,0.161-0.451,0.231-0.533,0.259c-0.467-0.255-1.325-1.119-1.71-1.319c-0.216-0.201-0.586-0.391-0.856-0.507
	c-0.281-0.567-0.72-1.079-1.663-1.47c-0.111-0.045-0.121-0.051-1.79-0.559c-0.504-0.154-0.962-0.293-1.083-0.331
	c-0.054-0.019-0.108-0.034-0.164-0.047c-0.021-0.199-0.05-0.379-0.075-0.534c-0.032-0.202-0.082-0.508-0.071-0.583
	c0.172-0.502,0.101-1.053-0.191-1.493c-0.171-0.256-0.405-0.459-0.676-0.588c0.059-0.227,0.114-0.448,0.167-0.665
	c1.246-5.067,2.86-2.746,3.746-4.495c0.276-0.241,1.962-0.676,2.481-2.059c0.339-0.135,0.628-0.376,0.82-0.692
	c1.033-0.045,2.184-0.958,3.837-2.272c0.437-0.347,0.668-0.879,0.639-1.418c0.346-0.248,0.712-0.638,0.86-0.845
	c0.404,0.037,0.633,0.056,0.897,0.002c1.162,0.511,1.878-0.345,2.866-1.187c0.095-0.126,1.798-0.258,1.052-2.989
	c0.683-0.394,0.972-1.068,0.884-1.722c0.173-0.312,0.247-0.677,0.199-1.043c-0.082-0.624-0.502-1.15-1.091-1.37
	c-0.328-0.121-0.685-0.354-1.065-0.6c-0.426-0.277-0.909-0.59-1.475-0.833c-0.485-0.207-1.041-0.177-1.502,0.085
	c-0.827,0.468-1.274,1.073-1.371,1.889c-0.256-0.427-0.741-0.981-1.295-1.164c0.091-1.559-0.79-4.237-1.107-4.67
	c-0.429-0.59-1.191-0.84-1.884-0.62c-0.516,0.164-1.085,0.493-1.482,0.858c-0.065,0.06-0.124,0.123-0.179,0.191
	c-0.136,0.066-0.264,0.15-0.382,0.253c-1.188,1.042-1.72,2.748-1.931,3.672c-0.181,0.788,0.23,1.197,0.404,1.526
	c-0.443-0.031-0.955-0.07-1.521-0.113c-0.712-0.056-1.391,0.35-1.68,1.009c-0.002,0.004-0.003,0.008-0.005,0.013
	c-0.914-0.111-1.889-0.038-2.479-0.173c-0.116-1.688-1.162-2.327-2.197-2.073l-0.001-0.004c-1.438,0.226-3.116,0.478-3.516,1.725
	c-0.435-0.174-0.785-0.137-1.172-0.034c-0.003-0.084-0.013-0.168-0.028-0.252c-0.281-1.505-0.938-2.47-2.447-2.179
	c-0.044-0.032-0.253-0.186-0.297-0.217c0.148-0.999-0.581-1.843-1.583-1.985c-0.051-0.064-0.108-0.124-0.167-0.181
	c0.115-0.582-0.082-1.199-0.55-1.606c-1.332-1.165-2.539,0.311-2.727,0.395c-0.426-0.154-0.899-0.13-1.307,0.07
	c-0.565,0.272-1.681,0.366-2.627,0.682c-0.647-0.157-1.008,0.089-1.633,0.306c0.024-0.566-0.237-1.099-0.68-1.43
	c0.012-0.065,0.018-0.131,0.021-0.195c0.122-0.186,0.208-0.393,0.25-0.611c0.043-0.047,0.022-0.025,0.336-0.413
	c0.784-0.959,0.308-2.414-0.9-2.719c-0.817-0.228-0.978,0.098-3.066,0.809c-0.594,0.203-1.201,0.41-1.809,0.667
	c-3.372,0.334-9.986,3.304-13.977,7.951c-0.078-0.014-0.573-0.251-1.207-0.034c-0.181,0.083-0.7,0.144-1.113,0.676
	c-0.902,0.602-1.933,1.213-2.954,1.914c-0.283,0.059-0.555,0.19-0.785,0.394c-0.591,0.941-3.522,2.107-2.448,4.016
	c-0.078,0.072-0.15,0.135-0.215,0.191c-0.531-0.032-0.902,0.173-1.353,0.451c-0.428-0.037-0.902,0.118-1.251,0.429
	c-6.865,6.216-6.623,5.845-6.874,6.309c-0.651,0.533-1.379,1.69-1.926,2.51c-0.445,0.558-0.774,1.048-0.579,1.817
	c-0.297,0.333-0.665,0.739-1.176,1.299c-0.66,0.725-0.561,1.842,0.173,2.448c-1.371,1.658-3.516,3.105-5.15,4.963
	c-0.951,0.197-3.571,2.869-3.571,4.005c0,1.457,1.798,2.79,4.053,0.261c1.275-0.539,4.077-2.526,11.556-9.776
	c1.194,0.265,4.33-1.714,5.333-2.418c0.486,0.65,1.084,0.704,1.799,0.672c0.022,0.199,0.104,0.514,0.228,0.738
	c-0.204,0.377-0.259,0.819-0.15,1.237c0.419,1.612-0.941,3.245-1.433,5.43c-0.237,1.045,0.542,2.023,1.575,2.067
	c0.025,0.139,0.068,0.29,0.137,0.443c-0.649,1.297-0.22,1.502-0.246,1.708c-0.149,0.483-0.256,0.997-0.398,1.184
	c-0.965,1.259,0.298,2.391,0.33,2.465c-0.042,0.182-0.079,0.337-0.111,0.458c-0.525,0.569-0.602,1.42-0.177,2.074
	c-0.041,0.183-0.07,0.383-0.091,0.604c-0.082,0.196-0.938,0.4-0.543,2.265c0.037,0.074,0.117,1.076,1.194,1.402
	c0.187,0.056,0.366,0.098,0.538,0.133c0.063,0.078,0.13,0.148,0.197,0.211c-0.007,0.83,0.183,1.614,0.379,2.317
	c-0.692,0.09-2.037,0.897-2.05,2.028c-0.054,4.545-2.766,8.706-3.487,13.663c-0.027,0.178,0.424,10.225,0.629,10.707
	c-0.098,0.576,0.104,1.16,0.542,1.553c-0.159,2.231,1.251,3.896,1.342,5.175c0.102,1.48,1.172,1.31,3.903,2.458l0.104,0.116
	c-0.153,3.936,2.876,6.174,4.137,8.536c-0.656,0.551-0.791,1.487-0.355,2.192c0.018,0.344,0.139,0.676,0.353,0.953
	c0.513,0.661,1.155,0.622,1.282,0.658c0.481,0.243,0.73,0.506,1.237,0.581c0.415,0.647,0.716,1.13,0.839,1.376
	c0.193,0.412-0.987,0.904,2.562,3.25c1.628,1.079,1.781,1.69,2.837,1.55c0.488-0.064,1.11-0.018,1.636-0.682
	c0.542-0.684,0.408-1.662,0.039-2.439c5.443,3.957,1.486,4.702,3.505,6.504c2.567,2.29,13.033,8.595,18.245,5.44
	c3.579,2.144,3.357,3.368,7.051,2.887c0.596-0.076,1.109-0.142,1.396,0c1.184,0.581,1.684,1.02,3.163,2.512
	c-0.05,0.584,0.207,1.17,0.705,1.527c0.739,0.526,1.533,1.032,2.268,0.941c0.175,0.153,0.312,0.275,0.405,0.363
	c0.468,1.366,1.817,1.093,4.71,2.042c1.117,1.169,3.156,0.067,3.724-0.939l2.136,2.108c-0.467,2.265-3.4,4.943-3.584,5.047
	c-0.823,0.34-1.26,1.169-0.977,2.014c-0.022,0.694-2.156,3.335-0.164,5.155c-0.563,0.784-0.716,1.81-0.241,2.949
	c-0.398,0.944,0.131,2.032,1.131,2.297c2.507,0.662,3.492,4.35,3.551,4.585c0.123,0.633,0.601,1.154,1.244,1.318
	c0.434,0.112,0.567,0.308,0.959,1.403c1.372,3.857,3.988,4.165,6.282,5.614c-0.117,1.736-0.164,2.498-0.172,2.998
	c-0.952,0.923-0.572,3.017-0.843,3.401c-0.302,0.434-0.385,0.98-0.23,1.475c-0.042,0.214-0.222,0.762-0.735,1.606
	c-1.373,1.883-0.955,3.981-1.413,5.223c-0.292,0.797-0.941,1.577-1.525,2.514c-0.683,0.513-0.613,1.089-2.002,4.491
	c-0.092,0.24-0.125,0.493-0.106,0.741l-0.452,0.674c-0.183,0.182-0.356,0.374-0.528,0.567c-0.037,0.042-0.073,0.083-0.11,0.123
	c-0.736,0.216-1.294,0.862-1.448,1.419c-2.202,1.994-2.046,1.808-2.093,1.849c-0.188,0.084-0.22,0.118-0.408,0.214
	c-0.237,0.053-0.459,0.134-0.671,0.278c-0.287,0.197-0.333,0.148-0.6,0.357c-1.223,0.538-1.505,1.706-0.414,2.449
	c0.616,0.013,0.868,0.013,1.395,0.013 M173.088,191.886c0.094,0.134,0.096,0.119,0.721,0.827c-0.173,1.015-0.074,1.913-0.015,2.795
	c-0.063,0.019-0.124,0.041-0.184,0.066c-0.087-0.061-0.181-0.114-0.279-0.158c-0.146-0.277-0.267-0.727-0.558-1.23
	C172.973,193.538,173.03,192.481,173.088,191.886z M182.602,335.226c0.018-0.001,0.076,0,0.104,0.003
	C182.675,335.222,182.638,335.228,182.602,335.226z M184.02,334.781v-0.001C184.131,334.71,184.108,334.726,184.02,334.781z
	 M185.903,330.685c0.004-0.006,0.009-0.013,0.014-0.019c0.289,0.406,0.752,0.694,1.265,0.755
	C186.702,331.399,186.206,331.126,185.903,330.685z"/>
<path style="fill:#FFFFFF;" d="M411.423,295.46c60.261-79.65,15.253-202.406-101.09-202.406h-88.04
	c-0.842,0-1.525,0.705-1.525,1.576c0.342,40.519-0.801,40.479,0.885,41.283c14.452,6.884,27.086,16.204,38.654,30.056
	c0.924,1.105,2.673,0.436,2.673-1.024v-30.594c0-0.87,0.682-1.576,1.525-1.576h45.828c111.024,0,112.226,168.846,0,168.846
	c-37.127,0.297-36.769-0.708-37.606,0.782c-7.984,14.206-18.733,26.479-31.499,36.109c-1.194,0.901-0.589,2.845,0.889,2.845h68.217
	c27.15,0,51.283-7.018,71.057-19.27C381.391,322.086,401.576,308.476,411.423,295.46z"/>
<g>
	<path style="fill:#F2F2F2;" d="M130.29,357.603v41.993h9.721v-41.993H130.29z"/>
	<path style="fill:#F2F2F2;" d="M167.073,375.037c-5.562-2.457-9.393-3.808-9.393-6.5c0-2.533,2.281-4.196,6.112-4.196
		c3.556,0,7.744,1.266,11.757,3.327l3.098-6.974c-4.372-2.38-9.751-3.723-14.763-3.723c-9.026,0-15.863,4.593-15.863,12.2
		c0,7.134,6.378,10.063,13.032,12.757c5.47,2.297,9.393,3.57,9.393,6.5c0,2.854-2.639,4.593-6.745,4.593
		c-4.288,0-9.118-1.587-13.764-4.432l-3.464,6.814c5.104,3.25,11.391,4.989,17.136,4.989c9.209,0,16.404-4.441,16.404-12.52
		C180.013,380.896,173.91,378.043,167.073,375.037z"/>
	<path style="fill:#F2F2F2;" d="M217.368,388.266c-3.044,2.457-6.371,4.12-10.521,4.12c-7.294,0-12.467-5.227-12.467-13.39v-0.793
		c0-8.004,5.173-13.314,12.002-13.314c4.616,0,7.568,1.747,10.521,4.204l4.807-6.821c-3.792-3.242-8.217-5.386-15.512-5.386
		c-12.741,0-22.34,8.957-22.34,21.478v0.709c0,12.52,9.415,21.402,22.157,21.402c7.568,0,12.002-2.457,15.969-5.943L217.368,388.266
		z"/>
	<path style="fill:#F2F2F2;" d="M248.039,356.886c-12.658,0-22.081,9.118-22.081,21.478v0.709c0,12.444,9.338,21.402,21.905,21.402
		c12.658,0,22.081-9.118,22.081-21.478v-0.717C269.944,365.843,260.613,356.886,248.039,356.886z M259.804,379.157
		c0,7.767-4.67,13.467-11.765,13.467c-6.912,0-11.933-5.784-11.933-13.627v-0.793c0-7.843,4.661-13.474,11.757-13.474
		c7.004,0,11.94,5.707,11.94,13.634V379.157z"/>
	<path style="fill:#F2F2F2;" d="M303.019,357.603l-10.323,30.504l-10.232-30.504h-10.147l15.863,42.231h8.957L313,357.603H303.019z"
		/>
	<path style="fill:#F2F2F2;" d="M357.052,378.92c0-12.52-6.997-22.035-20.089-22.035c-11.902,0-20.722,8.957-20.722,21.554v0.633
		c0,13.153,9.82,21.402,22.18,21.402c7.362,0,12.543-2.38,16.816-6.34l-4.822-5.631c-3.54,2.93-6.814,4.356-11.628,4.356
		c-6.181,0-11.186-3.563-12.185-10.773h30.358C357.052,381.057,357.052,379.95,357.052,378.92z M326.511,375.823
		c0.732-7.21,4.822-11.482,10.453-11.482c6.005,0,9.545,4.753,10.003,11.482H326.511z"/>
	<path style="fill:#F2F2F2;" d="M373.64,365.843v-8.24H363.5v41.993h10.14v-18.464c0-9.666,5.646-14.42,13.901-14.42h0.541v-9.743
		C380.811,356.725,376.241,360.373,373.64,365.843z"/>
	<path style="fill:#F2F2F2;" d="M425.372,357.603l-11.036,34.807l-11.452-34.807h-10.987l17.548,47.021
		c-1.663,3.815-3.602,5.051-6.279,5.051c-2.038,0-4.159-0.618-6.005-1.595l-3.143,7.706c3.052,1.503,6.096,2.388,10.255,2.388
		c7.385,0,11.544-3.632,14.779-12.658l17.129-47.914C433.065,357.603,428.106,357.603,425.372,357.603z"/>
	<path style="fill:#F2F2F2;" d="M93.012,343.404H73.564v2.327v6.974v46.984h4.471h6.035h8.941c18.082,0,30.321-11.338,30.321-27.818
		v-0.725C123.332,354.666,111.095,343.404,93.012,343.404z M112.368,371.946c0,12.139-7.759,19.295-19.082,19.295l-7.516-0.005
		c-1.113,0-0.683,0-1.7,0V351.85h9.216c11.231,0,19.082,7.316,19.082,19.371V371.946z"/>
</g>
<g>
</g>
<g>
</g>
<g>
</g>
<g>
</g>
<g>
</g>
<g>
</g>
<g>
</g>
<g>
</g>
<g>
</g>
<g>
</g>
<g>
</g>
<g>
</g>
<g>
</g>
<g>
</g>
<g>
</g>
</svg>
