<?xml version="1.0" encoding="iso-8859-1"?>
<!-- Generator: Adobe Illustrator 19.0.0, SVG Export Plug-In . SVG Version: 6.00 Build 0)  -->
<svg version="1.1" id="Capa_1" xmlns="http://www.w3.org/2000/svg" xmlns:xlink="http://www.w3.org/1999/xlink" x="0px" y="0px"
	 viewBox="0 0 512 512" style="enable-background:new 0 0 512 512;" xml:space="preserve">
<path style="fill:#333333;" d="M512,256c0,2.55-0.042,5.078-0.115,7.607c-0.063,2.121-0.146,4.232-0.261,6.343
	c-0.763,14.326-2.717,28.348-5.747,41.953c-0.491,2.205-1.014,4.409-1.567,6.593C476.421,429.672,375.829,512,256,512
	c-113.863,0-210.359-74.334-243.618-177.131C4.347,310.032,0,283.523,0,256c0-26.99,4.18-52.997,11.922-77.427
	C44.732,75.034,141.605,0,256,0C397.385,0,512,114.615,512,256z"/>
<g>
	<path style="fill:#F2F2F2;" d="M168.03,194.288v39.194l-21.211-39.194h-7.879v53.582h6.959v-41.42l22.591,41.42h6.499v-53.582
		H168.03z"/>
	<path style="fill:#F2F2F2;" d="M204.309,194.288h-7.199l-16.457,53.582h7.502l4.295-14.545h16.603l4.295,14.545h7.419
		L204.309,194.288z M194.361,226.816l6.353-21.734l6.426,21.734H194.361z"/>
	<path style="fill:#F2F2F2;" d="M219.24,194.288v6.353h13.312v47.229h7.043v-47.229h13.322v-6.353H219.24z"/>
	<path style="fill:#F2F2F2;" d="M259.96,194.288v53.582h7.043v-53.582H259.96z"/>
	<path style="fill:#F2F2F2;" d="M317.45,206.42c-1.944-4.211-4.618-7.471-8.035-9.759c-3.417-2.299-7.325-3.448-11.713-3.448
		s-8.307,1.149-11.755,3.448c-3.438,2.288-6.134,5.548-8.077,9.759c-1.933,4.211-2.905,9.091-2.905,14.66
		c0,5.559,0.972,10.449,2.905,14.66c1.944,4.211,4.639,7.461,8.077,9.759c3.448,2.288,7.367,3.438,11.755,3.438
		s8.296-1.149,11.713-3.438c3.417-2.299,6.092-5.548,8.035-9.759c1.943-4.211,2.905-9.101,2.905-14.66
		C320.355,215.51,319.394,210.631,317.45,206.42z M308.997,236.116c-2.633,3.908-6.395,5.862-11.295,5.862
		s-8.673-1.954-11.327-5.862c-2.654-3.897-3.981-8.913-3.981-15.036c0-6.123,1.327-11.139,3.981-15.047s6.426-5.851,11.327-5.851
		s8.662,1.944,11.295,5.851c2.623,3.908,3.939,8.923,3.939,15.047C312.936,227.203,311.62,232.218,308.997,236.116z"/>
	<path style="fill:#F2F2F2;" d="M356.801,194.288v39.194l-21.211-39.194h-7.879v53.582h6.959v-41.42l22.591,41.42h6.499v-53.582
		H356.801z"/>
	<path style="fill:#F2F2F2;" d="M393.08,194.288h-7.189l-16.468,53.582h7.502l4.295-14.545h16.603l4.294,14.545h7.419
		L393.08,194.288z M383.133,226.816l6.353-21.734l6.426,21.734H383.133z"/>
	<path style="fill:#F2F2F2;" d="M422.17,241.518v-47.229h-6.969v53.582h27.408v-6.353H422.17z"/>
	<path style="fill:#F2F2F2;" d="M160.758,291.38v6.353h6.813v14.158c-1.693,0.711-3.657,1.076-5.893,1.076
		c-5.82,0-10.24-1.985-13.249-5.935c-3.009-3.96-4.514-9.153-4.514-15.579c0-4.033,0.69-7.68,2.069-10.951
		c1.379-3.26,3.406-5.841,6.081-7.732c2.675-1.881,5.904-2.832,9.686-2.832c1.985,0,3.814,0.209,5.475,0.616
		c1.651,0.408,3.323,1.024,5.016,1.839l0.763-6.51c-3.574-1.526-7.555-2.299-11.943-2.299c-4.796,0-9.07,1.149-12.821,3.448
		s-6.698,5.548-8.84,9.759c-2.152,4.211-3.218,9.101-3.218,14.66c0,5.413,1.003,10.219,3.02,14.43
		c2.017,4.211,4.911,7.502,8.694,9.874c3.772,2.372,8.244,3.563,13.396,3.563c2.445,0,4.848-0.324,7.199-0.961
		c2.341-0.637,4.357-1.494,6.04-2.56V291.38H160.758z"/>
	<path style="fill:#F2F2F2;" d="M188.385,311.892v-18.453h17.147v-6.426h-17.147v-15.997h21.671v-6.353h-28.63v53.582h29.236v-6.353
		L188.385,311.892L188.385,311.892z"/>
	<path style="fill:#F2F2F2;" d="M255.519,276.793c-1.933-4.211-4.618-7.461-8.035-9.759c-3.417-2.299-7.325-3.448-11.713-3.448
		c-4.389,0-8.307,1.149-11.745,3.448c-3.448,2.299-6.144,5.548-8.077,9.759c-1.944,4.211-2.915,9.101-2.915,14.66
		s0.972,10.449,2.915,14.66c1.933,4.211,4.629,7.461,8.077,9.759c3.438,2.299,7.356,3.448,11.745,3.448
		c4.389,0,8.296-1.149,11.713-3.448c3.417-2.299,6.102-5.548,8.035-9.759c1.943-4.211,2.915-9.101,2.915-14.66
		S257.463,281.004,255.519,276.793z M247.066,306.5c-2.633,3.897-6.395,5.851-11.295,5.851s-8.673-1.954-11.327-5.851
		c-2.654-3.908-3.981-8.923-3.981-15.047s1.327-11.139,3.981-15.047c2.654-3.897,6.426-5.851,11.327-5.851s8.662,1.954,11.295,5.851
		c2.623,3.908,3.939,8.923,3.939,15.047C251.005,297.576,249.689,302.592,247.066,306.5z"/>
	<path style="fill:#F2F2F2;" d="M286.375,291.38v6.353h6.813v14.158c-1.682,0.711-3.657,1.076-5.893,1.076
		c-5.82,0-10.24-1.985-13.249-5.935c-3.009-3.96-4.514-9.153-4.514-15.579c0-4.033,0.69-7.68,2.069-10.951
		c1.379-3.26,3.406-5.841,6.081-7.732c2.685-1.881,5.904-2.832,9.686-2.832c1.985,0,3.814,0.209,5.475,0.616
		c1.651,0.408,3.323,1.024,5.015,1.839l0.763-6.51c-3.574-1.526-7.555-2.299-11.943-2.299c-4.796,0-9.07,1.149-12.821,3.448
		c-3.751,2.299-6.698,5.548-8.84,9.759c-2.142,4.211-3.218,9.101-3.218,14.66c0,5.413,1.003,10.219,3.02,14.43
		c2.017,4.211,4.911,7.502,8.694,9.874c3.772,2.372,8.244,3.563,13.396,3.563c2.445,0,4.848-0.324,7.199-0.961
		c2.341-0.637,4.357-1.494,6.039-2.56V291.38H286.375z"/>
	<path style="fill:#F2F2F2;" d="M330.93,295.205c2.602-1.432,4.629-3.385,6.081-5.851c1.452-2.476,2.184-5.245,2.184-8.307
		c0-5.36-1.567-9.435-4.712-12.215c-3.135-2.779-7.513-4.169-13.124-4.169h-13.782v53.582h6.969V297.42h6.729
		c0.867,0,1.714-0.042,2.529-0.146l9.571,20.971h8.265L330.93,295.205z M320.742,290.994h-6.196v-19.978h6.196
		c3.877,0,6.708,0.836,8.495,2.529c1.787,1.682,2.685,4.18,2.685,7.502c0,3.26-0.899,5.736-2.685,7.419
		C327.45,290.147,324.618,290.994,320.742,290.994z"/>
	<path style="fill:#F2F2F2;" d="M366.446,264.662h-7.199l-16.457,53.582h7.502l4.284-14.545h16.614l4.284,14.545h7.429
		L366.446,264.662z M356.488,297.19l6.353-21.734l6.437,21.734H356.488z"/>
	<path style="fill:#F2F2F2;" d="M414.856,269.103c-3.135-2.957-7.513-4.441-13.124-4.441H387.95v53.582h7.043v-18.756h6.74
		c5.611,0,9.989-1.494,13.124-4.472c3.145-2.988,4.713-7.314,4.713-12.978C419.568,276.375,418.001,272.06,414.856,269.103z
		 M401.115,293.063h-6.123v-22.047h6.123c7.45,0,11.18,3.678,11.18,11.024C412.296,289.384,408.566,293.063,401.115,293.063z"/>
	<path style="fill:#F2F2F2;" d="M456.391,264.662v22.121h-24.649v-22.121h-6.969v53.582h6.969v-24.649h24.649v24.649h6.959v-53.582
		L456.391,264.662L456.391,264.662z"/>
	<path style="fill:#F2F2F2;" d="M472.848,264.662v53.582h7.043v-53.582L472.848,264.662L472.848,264.662z"/>
	<path style="fill:#F2F2F2;" d="M502.512,272.771c2.539-1.787,5.58-2.738,9.112-2.821c0.115-2.111,0.199-4.221,0.261-6.343
		c-0.355-0.01-0.721-0.021-1.076-0.021c-4.639,0-8.798,1.149-12.476,3.448c-3.668,2.299-6.541,5.548-8.61,9.759
		c-2.069,4.211-3.103,9.101-3.103,14.66c0,5.611,1.014,10.522,3.03,14.733s4.859,7.45,8.537,9.728
		c1.87,1.16,3.908,2.017,6.123,2.581c0.554-2.184,1.076-4.389,1.567-6.593c-1.202-0.449-2.33-1.034-3.365-1.766
		c-2.685-1.891-4.713-4.472-6.092-7.732c-1.379-3.271-2.069-6.917-2.069-10.951c0-4.033,0.69-7.68,2.069-10.951
		C497.8,277.243,499.827,274.662,502.512,272.771z"/>
</g>
<path style="fill:#FCB900;" d="M0,178.573V256c0,27.523,4.347,54.032,12.382,78.869h95.41V178.573H0z M91.178,318.861H16.603
	v-124.28h74.574V318.861z"/>
<g>
</g>
<g>
</g>
<g>
</g>
<g>
</g>
<g>
</g>
<g>
</g>
<g>
</g>
<g>
</g>
<g>
</g>
<g>
</g>
<g>
</g>
<g>
</g>
<g>
</g>
<g>
</g>
<g>
</g>
</svg>
