<?xml version="1.0" encoding="iso-8859-1"?>
<!-- Generator: Adobe Illustrator 19.0.0, SVG Export Plug-In . SVG Version: 6.00 Build 0)  -->
<svg version="1.1" id="Capa_1" xmlns="http://www.w3.org/2000/svg" xmlns:xlink="http://www.w3.org/1999/xlink" x="0px" y="0px"
	 viewBox="0 0 512 512" style="enable-background:new 0 0 512 512;" xml:space="preserve">
<path style="fill:#333333;" d="M512,256c0,45.328-11.776,87.897-32.444,124.834c-1.014,1.797-2.038,3.594-3.093,5.371
	C431.898,461.5,349.842,512,256,512c-93.351,0-175.031-49.967-219.752-124.615c-4.524-7.544-8.673-15.339-12.413-23.364
	C8.537,331.201,0,294.599,0,256C0,114.615,114.615,0,256,0c83.884,0,158.344,40.344,205.03,102.682
	c4.033,5.392,7.868,10.94,11.463,16.645c0.261,0.387,0.512,0.784,0.752,1.181c6.416,10.261,12.121,21.013,17.053,32.183
	C504.247,184.289,512,219.24,512,256z"/>
<g>
	<path style="fill:#F2F2F2;" d="M172.173,239.236l60.863,34.68c-18.454,32.328-53.256,54.12-93.15,54.12
		c-59.201,0-107.194-47.994-107.194-107.194s47.994-107.194,107.194-107.194c40.203,0,75.237,22.133,93.582,54.882l-61.15,34.18
		c-6.358-11.353-18.497-19.021-32.433-19.021c-20.519,0-37.152,16.634-37.152,37.152s16.634,37.152,37.152,37.152
		C153.713,257.995,165.778,250.442,172.173,239.236z"/>
	<path style="fill:#F2F2F2;" d="M41.9,374.554l8.819,5.026c-2.675,4.681-7.711,7.837-13.49,7.837c-0.334,0-0.658-0.01-0.982-0.031
		c-4.524-7.544-8.673-15.339-12.413-23.364c2.696-4.587,7.69-7.67,13.396-7.67c5.82,0,10.898,3.208,13.552,7.952l-8.861,4.953
		c-0.92-1.641-2.675-2.748-4.692-2.748c-2.978,0-5.381,2.403-5.381,5.381c0,2.967,2.403,5.381,5.381,5.381
		C39.225,377.271,40.981,376.174,41.9,374.554z"/>
	<rect x="250.734" y="102.682" style="fill:#F2F2F2;" width="239.564" height="237.129"/>
</g>
<polygon style="fill:#333333;" points="404.624,119.332 404.624,203.789 336.816,119.332 268.195,119.332 268.195,322.757 
	336.816,322.757 336.816,238.301 404.624,322.757 473.245,322.757 473.245,119.332 "/>
<g>
	<polygon style="fill:#F2F2F2;" points="232.986,357.27 232.986,369.408 223.241,357.27 213.38,357.27 213.38,386.506 
		223.241,386.506 223.241,374.368 232.986,386.506 242.848,386.506 242.848,357.27 	"/>
	<polygon style="fill:#F2F2F2;" points="281.238,357.27 281.238,369.408 271.494,357.27 261.632,357.27 261.632,386.506 
		271.494,386.506 271.494,374.368 281.238,386.506 291.1,386.506 291.1,357.27 	"/>
	<path style="fill:#F2F2F2;" d="M74.616,357.167H60.103l-9.341,29.341H61.21l1.348-4.775h9.373l1.369,4.775h10.355L74.616,357.167z
		 M64.69,374.22l2.518-8.923l2.56,8.923H64.69z"/>
	<path style="fill:#F2F2F2;" d="M108.774,376.759c3.291-1.745,5.528-5.204,5.528-9.185c0-2.873-1.16-5.475-3.041-7.356
		c-1.891-1.891-4.483-3.051-7.356-3.051H86.591v29.341h9.55v-8.526h3.135l3.96,8.526h11.274L108.774,376.759z M101.919,370.469
		h-5.778v-4.869h5.778c0.679,0,1.285,0.272,1.724,0.711c0.439,0.439,0.721,1.045,0.721,1.724
		C104.364,369.382,103.267,370.469,101.919,370.469z"/>
	<path style="fill:#F2F2F2;" d="M445.304,376.759c3.291-1.745,5.527-5.204,5.527-9.185c0-2.873-1.16-5.475-3.041-7.356
		c-1.891-1.891-4.483-3.051-7.356-3.051h-17.314v29.341h9.55v-8.526h3.135l3.96,8.526h11.274L445.304,376.759z M438.45,370.469
		h-5.778v-4.869h5.778c0.679,0,1.285,0.272,1.724,0.711c0.439,0.439,0.711,1.045,0.711,1.724
		C440.884,369.382,439.798,370.469,438.45,370.469z"/>
	<polygon style="fill:#F2F2F2;" points="145.825,357.169 137.045,357.169 125.98,357.169 116.742,357.169 116.742,365.949 
		125.98,365.949 125.98,386.506 137.045,386.506 137.045,365.949 145.825,365.949 	"/>
	<polygon style="fill:#F2F2F2;" points="352.601,357.169 343.819,357.169 332.755,357.169 323.518,357.169 323.518,365.949 
		332.755,365.949 332.755,386.506 343.819,386.506 343.819,365.949 352.601,365.949 	"/>
	<path style="fill:#F2F2F2;" d="M162.523,356.634c-8.317,0-15.057,6.729-15.057,15.057c0,8.307,6.74,15.057,15.057,15.057
		c8.317,0,15.057-6.75,15.057-15.057C177.58,363.363,170.841,356.634,162.523,356.634z M162.523,377.166
		c-3.02,0-5.475-2.456-5.475-5.475c0-3.03,2.456-5.486,5.475-5.486c3.03,0,5.486,2.456,5.486,5.486
		C168.009,374.711,165.554,377.166,162.523,377.166z"/>
	<path style="fill:#F2F2F2;" d="M195.208,356.634c-8.317,0-15.057,6.729-15.057,15.057c0,8.307,6.74,15.057,15.057,15.057
		c8.307,0,15.057-6.75,15.057-15.057C210.265,363.363,203.515,356.634,195.208,356.634z M195.208,377.166
		c-3.03,0-5.486-2.456-5.486-5.475c0-3.03,2.456-5.486,5.486-5.486c3.02,0,5.475,2.456,5.475,5.486
		C200.683,374.711,198.228,377.166,195.208,377.166z"/>
	<path style="fill:#F2F2F2;" d="M405.096,356.634c-8.317,0-15.057,6.729-15.057,15.057c0,8.307,6.74,15.057,15.057,15.057
		c8.307,0,15.057-6.75,15.057-15.057C420.153,363.363,413.403,356.634,405.096,356.634z M405.096,377.166
		c-3.03,0-5.486-2.456-5.486-5.475c0-3.03,2.456-5.486,5.486-5.486c3.02,0,5.475,2.456,5.475,5.486
		C410.572,374.711,408.116,377.166,405.096,377.166z"/>
	<polygon style="fill:#F2F2F2;" points="320.676,365.493 320.676,357.27 304.841,357.27 294.993,357.27 294.993,365.493 
		294.993,368.183 294.993,375.593 294.993,378.283 294.993,386.506 304.841,386.506 320.676,386.506 320.676,378.283 
		304.841,378.283 304.841,375.593 318.138,375.593 318.138,368.183 304.841,368.183 304.841,365.493 	"/>
	<polygon style="fill:#F2F2F2;" points="372.09,378.74 375.288,386.506 383.357,386.506 389.144,357.169 379.094,357.169 
		376.81,369.452 372.09,358.336 367.37,369.452 365.086,357.169 355.036,357.169 360.823,386.506 368.893,386.506 	"/>
	<path style="fill:#F2F2F2;" d="M472.283,371.43l7.272,9.404c-1.014,1.797-2.038,3.594-3.093,5.371h-5.245l-7.461-10.198v10.198
		h-9.749v-29.236h9.749v9.979l7.461-9.979h12.487L472.283,371.43z"/>
</g>
<g>
</g>
<g>
</g>
<g>
</g>
<g>
</g>
<g>
</g>
<g>
</g>
<g>
</g>
<g>
</g>
<g>
</g>
<g>
</g>
<g>
</g>
<g>
</g>
<g>
</g>
<g>
</g>
<g>
</g>
</svg>
