<?xml version="1.0" encoding="iso-8859-1"?>
<!-- Generator: Adobe Illustrator 19.0.0, SVG Export Plug-In . SVG Version: 6.00 Build 0)  -->
<svg version="1.1" id="Capa_1" xmlns="http://www.w3.org/2000/svg" xmlns:xlink="http://www.w3.org/1999/xlink" x="0px" y="0px"
	 viewBox="0 0 512 512" style="enable-background:new 0 0 512 512;" xml:space="preserve">
<path style="fill:#79A6BC;" d="M512,256c0,24.754-3.511,48.682-10.073,71.325c-0.313,1.097-0.637,2.194-0.972,3.291
	c-0.334,1.087-0.669,2.173-1.024,3.26C466.986,437.185,370.228,512,256,512c-113.559,0-209.847-73.937-243.357-176.306
	c-0.282-0.888-0.575-1.787-0.857-2.685c-0.47-1.494-0.93-2.999-1.369-4.514C3.636,305.507,0,281.182,0,256
	C0,114.615,114.615,0,256,0S512,114.615,512,256z"/>
<path style="fill:#9BC4DD;" d="M500.955,330.616c-25.987,85.389-95.368,151.855-182.471,173.683
	c-0.219,0.063-0.428,0.115-0.648,0.167c-3.302,0.825-6.625,1.578-9.979,2.267c-4.88,1.014-9.812,1.881-14.796,2.602
	c-6.541,0.951-13.155,1.651-19.843,2.09c-2.811,0.188-5.642,0.334-8.485,0.428c-2.905,0.094-5.81,0.146-8.735,0.146
	c-6.353,0-12.654-0.23-18.892-0.69c-1.379-0.094-2.759-0.209-4.138-0.334c-7.429-0.658-14.764-1.641-22.006-2.926h-0.01
	c-94.375-16.75-170.872-85.201-199.168-175.041c10.971-4.629,22.204-3.563,22.204-3.563c0-29.205,48.922-41.357,48.922-41.357
	c-19.79-13.709-24.346-33.646-24.346-42.893c0-49.445,36.039-60.531,36.039-60.531c-12.936-42.047,33.729-55.254,33.729-55.254
	c25.882-52.935,49.915-51.952,49.915-51.952l22.173-13.396l38.358-21.723h35.579l34.659,16.175l14.326,14.326c0,0,0,0,14.315,6.008
	c39.748,18.024,47.376,52.914,47.376,52.914s6.008-6.008,24.712,9.467c18.714,15.475,12.476,42.977,12.476,42.977
	s35.579,8.317,35.579,45.746s-22.956,55.192-22.956,55.192c34.346,12.215,46.529,45.537,46.529,45.537
	C488.26,328.714,495,329.132,500.955,330.616z"/>
<path style="fill:#C2E2F2;" d="M95.846,159.684c5.385-12.642,14.452-20.961,27.871-24.759c4.277-1.213,6.058-0.658,5.788,4.269
	c3.272-2.904,3.341-6.515,4.228-9.78c6.245-23.04,20.822-38.475,42.905-47.071c0.984-0.381,1.976-0.776,2.869-1.032h0.007
	l21.951-10.32l12.955-12.511c0.79-1.032,1.698-2.017,2.884-2.787c0.326-0.215,0.679-0.416,1.053-0.589
	c42.697-20.17,83.785-7.16,107.247,28.918c1.969,3.022,3.694,6.204,6.259,10.522c0.755-5.393-1.532-8.754-2.197-13.412
	c14.666,2.842,25.986,10.335,35.827,20.496c10.064,10.397,14.521,23.538,17.938,38.067c1.005-6.73,4.741-5.78,8.636-4.693
	c12.511,3.507,21.238,11.596,27.503,22.659c1.227,2.156,2.329,4.388,3.674,6.938c0.977-14.611-12.123-32.916-26.554-37.623
	c-0.222-0.069-0.443-0.145-0.666-0.173c-9.212-1.165-15.166-5.427-17.689-15.118c-2.058-7.902-7.638-14.445-12.171-21.383
	c-1.9-2.807-4.117-5.33-6.37-7.534c-5.628-5.524-12.795-9.156-20.517-10.771c-5.864-1.227-11.423-3.548-17.203-5.053
	c-1.144-0.298-2.148-1.663-2.925-2.745c-22.201-31.149-65.577-35.994-94.605-23.725c-3.68,1.553-7.458,2.995-10.612,5.441v0.007
	c-1.809,1.4-3.417,3.14-4.679,5.427c3.451-8.29-1.095-15.089-3.993-22.146c-0.992-2.405-1.539-4.859-0.326-7.34
	c1.837-3.737,1.387-7.535,0.429-11.36h-1.387c-1.261,2.426-2.287,5.025-3.833,7.257c-4.859,7.028-4.693,13.634,0.95,20.149
	c4.221,4.887,3.417,10.785,2.745,16.503c-0.271,2.274-1.539,4.304-5.177,4.359c3.84-6.925-1.961-11.547-3.071-18.465
	c-2.869,4.436-3.951,8.338-3.036,11.991c1.116,4.471,1.026,7.77-3.667,9.412c0.658,2.918,4.076,1.24,4.977,4.388
	c-1.116,0.36-2.232,0.735-3.348,1.116c-5.316,1.795-10.605,3.667-16.108,4.699c-0.548,0.111-1.088,0.201-1.636,0.284
	c-0.006,0-0.014,0-0.021,0.007c-7.548,1.795-19.712,10.57-26.173,19.234c-0.784,1.24-1.58,2.44-2.35,3.604
	c-0.014,0.014-0.021,0.028-0.027,0.042c-0.257,0.381-0.506,0.755-0.748,1.13c-2.017,3.077-3.833,6.017-4.921,9.205
	c-4.034,11.81-10.695,19.324-22.811,24.578c-16.697,7.243-24.772,22.741-23.477,38.385C93.704,164.862,94.75,162.263,95.846,159.684
	z"/>
<path style="fill:#F9D1A5;" d="M265.579,156.594c-4.851,9.01-13.711,17.903,5.967,20.984c19.679,3.081-6.66,23.722-6.66,23.722
	l-33.052-12.002l2.208-15.377l-2.772-20.793l6.238-32.23l21.833,4.506l6.931,13.516L265.579,156.594z"/>
<g>
	<path style="fill:#F2C468;" d="M216.72,210.612c0-12.547,12.365-32.497,12.365-32.497l13.691,11.793l23.224-9.09
		c0,0,3.142-4.268,13.143-4.268c10.001,0,12.834,18.25,12.834,18.25l0.016,18.515l-26.877,22.18l-29.574,10.628l-13.401-8.779
		L216.72,210.612z"/>
	<path style="fill:#F2C468;" d="M317.837,504.466c-8.108,2.027-16.374,3.647-24.775,4.869c-6.541,0.951-13.155,1.651-19.843,2.09
		c-2.811,0.188-5.642,0.334-8.485,0.428c-2.905,0.094-5.81,0.146-8.735,0.146c-6.353,0-12.654-0.23-18.892-0.69l22.925-45.234
		l-12.476-126.151l10.397-82.181l26.342-20.407l21.859,43.833l4.211,59.413l2.341,140.737L317.837,504.466z"/>
</g>
<polyline style="fill:#F9D1A5;" points="227.213,184.677 215.211,170.802 205.891,154.419 207.689,117.674 190.49,112.348 
	193.262,162.254 222.605,206.152 "/>
<g>
	<polygon style="fill:#431B07;" points="26.598,91.126 26.598,121.93 42.428,121.93 42.428,137.333 16.758,137.333 8.629,129.204 
		8.629,91.126 8.629,85.778 8.629,47.699 16.758,39.57 42.428,39.57 42.428,54.972 26.598,54.972 26.598,85.778 	"/>
	<path style="fill:#431B07;" d="M104.465,39.57H91.63H78.796L70.666,47.7v38.078v5.349v38.078l8.129,8.129H91.63h12.834l8.129-8.129
		V91.126v-5.349V47.699L104.465,39.57z M97.833,121.93h-6.204h-6.204V54.972h6.204h6.204V121.93z"/>
	<path style="fill:#431B07;" d="M219.771,39.57v82.361h-6.204h-6.204V39.57h-14.76v46.207v5.349v38.078l8.129,8.129h12.834h12.834
		l8.129-8.129V91.126v-5.349V39.57H219.771z"/>
	<polygon style="fill:#431B07;" points="157.091,122.573 157.091,39.57 142.331,39.57 142.331,122.573 142.331,137.333 
		157.091,137.333 169.498,137.333 169.498,122.573 	"/>
	<polygon style="fill:#431B07;" points="284.162,138.83 286.301,138.83 291.007,122.572 291.007,138.402 306.41,138.402 
		306.41,39.998 292.29,39.998 284.162,75.081 276.033,39.998 261.913,39.998 261.913,138.402 277.316,138.402 277.316,122.572 
		282.022,138.83 	"/>
	<path style="fill:#431B07;" d="M381.927,47.699l-8.131-8.131h-25.671h-8.125v97.767h8.125h25.671l8.131-8.131V96.685l-5.776-5.776
		l5.776-5.776V47.699z M367.166,121.932h-12.405V98.187h12.405V121.932z M367.166,83.638h-12.405V54.97h12.405V83.638z"/>
	<rect x="408.242" y="39.568" style="fill:#431B07;" width="18.398" height="97.771"/>
	<polygon style="fill:#431B07;" points="479.259,127.278 481.826,127.278 483.965,138.83 504.074,138.83 488.244,40.426 
		479.259,40.426 470.275,40.426 454.445,138.83 474.553,138.83 476.693,127.278 	"/>
</g>
<path style="fill:#84524A;" d="M272.379,142.281c-1.261-6.045-3.618-11.762-4.755-17.903c-0.971-5.219-5.393-8.574-11.09-8.789
	c-6.648-0.25-13.302-0.208-19.948-0.111c-4.838,0.076-6.799,2.585-8.117,7.486c-1.726,6.404-5.815,11.942-5.988,19.151
	c-0.166,7.043,0.097,13.391,6.259,17.931c2.253,1.656,2.766,3.32,1.143,5.801c-1.608,2.461-1.643,5.267-0.458,7.951
	c0.568,1.296,1.061,2.467,0.332,3.583c-0.007,0.007-0.007,0.014-0.014,0.028c-1.574,3.48,6.869,10.376,6.869,10.376
	c-0.34-0.485-0.679-0.971-1.011-1.456c-0.693-0.998-1.345-2.163-0.548-3.077c0.145-0.166,0.34-0.326,0.589-0.479
	c2.114-1.261,4.249-2.898,7.014-1.421c2.163,1.15,3.861,3.313,7.056,3.188c-0.915-4.138,0.658-7.035,3.361-10.265
	c1.795-2.142,3.341-5.33,1.595-8.02c-0.561-0.866-1.463-1.684-2.814-2.398c-3.396-1.788-2.682-3.272,0.597-4.262
	c4.679-1.414,5.15-3.056,0.277-5.004c-3.542-1.406-1.587-4.45-1.525-6.543c0.139-4.616,0.471-8.802-5.282-10.397
	c-2.058-0.568-2.53-2.503-1.948-4.547c0.693-2.405,2.322-3.951,4.644-4.714c5.219-1.705,10.917,0.845,12.47,6.883
	c1.976,7.687,3.056,15.727-1.387,23.22c5.988,2.724,9.586,1.595,11.825-3.972C273.106,150.577,273.259,146.48,272.379,142.281z
	 M245.284,150.826c-0.16,1.234,0.055,2.814-1.934,2.925c-2.274-1.219-4.062-2.946-4.193-5.635c-0.076-1.615,1.372-2.253,2.827-2.093
	C244.854,146.327,245.61,148.283,245.284,150.826z"/>
<path style="fill:#E2B991;" d="M252.45,159.595c4.679-1.414,5.15-3.056,0.277-5.004c-3.542-1.406-1.587-4.45-1.525-6.543
	c0.139-4.616,0.471-8.802-5.282-10.397c-2.058-0.568-2.53-2.503-1.948-4.547c0.693-2.405,2.322-3.951,4.644-4.714
	c-10.765,3.251-17.003,14.341-12.15,25.778c4.374,10.313,10.446,13.578,18.201,12.088c-0.561-0.866-1.463-1.684-2.814-2.398
	C248.459,162.069,249.173,160.585,252.45,159.595z"/>
<path style="fill:#D1A250;" d="M318.485,504.299c-0.219,0.063-0.428,0.115-0.648,0.167c-3.302,0.825-6.625,1.578-9.979,2.267
	c-1.536-4.065-2.351-8.359-2.759-12.716c-1.369-14.66-0.836-29.644-3.626-43.99c-2.675-13.72-2.351-26.843-0.115-40.333
	c1.16-7.022,1.787-14.127-3.647-20.208c-1.86-2.09-2.152-5.183-1.703-7.92c2.142-13.03-0.408-25.684-2.759-38.358
	c-0.491-2.664-1.254-4.786,2.936-3.239c3.009,1.118,1.964-1.63,2.079-2.853c1.463-15.151-1.223-30.177-8.359-45.892
	c9.801,5.611,14.639,13.396,16.729,23.416c1.787,8.6,3.072,17.199,3.73,25.945c3.281,43.677,2.947,87.5,5.653,131.208
	C316.698,482.68,317.116,493.537,318.485,504.299z"/>
<path style="fill:#C2E2F2;" d="M427.507,185.587c21.355,6.701,32.229,21.941,34.489,43.44c2.527,24.034-6.404,42.978-27.147,56.111
	c12.803-14.824,19.558-31.75,18.434-51.487C452.143,213.617,444.231,197.294,427.507,185.587z"/>
<path style="fill:#E2B991;" d="M238.318,212.39l-3.029-0.173l-18.514-1.047c-0.021-0.215-0.034-0.429-0.055-0.645
	c-0.54-6.135-2.939-11.526-7.215-16.739c-5.961-7.264-10.902-15.422-15.803-23.476c-2.724-4.477-6.814-8.983-6.709-14.216
	c0.409-21.099,2.127-42.197-1.671-63.179c-0.173-0.971,0.326-3.085-0.111-2.848c-3.105,1.684-4.055,1.282-4.138,0.263v-0.006
	l11.034-19.332l14.424-0.922c0.672,15.858-1.442,31.766,1.158,47.604c0.637,3.874-2.114,7.139-5.393,8.512
	c-4.242,1.768-3.216-3.14-4.775-4.872c-0.242-0.263-0.839-0.201-2.003-0.437c-0.09,7.735,3.091,15.284,2.197,22.499
	c-1.622,13.031,4.838,22.367,11.36,32.057c3.993,5.933,6.945,12.622,12.213,17.716c0.055-0.097,0.118-0.201,0.173-0.298
	c0-0.007,0-0.014,0.006-0.021c0.423-0.763,0.748-1.497,0.984-2.211c0.007-0.006,0.007-0.014,0.007-0.021
	c1.366-4.151-0.173-7.638-2.808-11.146c-4.727-6.301-10.265-11.797-15.887-17.266c-2.177-2.128-3.924-5.517-0.86-7.714
	c3.035-2.169,4,1.768,5.441,3.556c1.15,1.435,2.024,3.077,3.077,4.595c3.812,5.49,7.43,11.187,13.342,14.75
	c0.721,0.437,1.469,1.088,2.308,1.297l0.61,1.823l7.07,21.209L238.318,212.39z"/>
<g>
	<path style="fill:#D1A250;" d="M271.724,218.208c-1.479,0.223-2.957,0.446-4.805,0.725c1.217-9.326,2.134-18.536,5.671-27.318
		c0.266,8.976,5.762,18.092-1.084,26.812C271.5,218.434,271.724,218.208,271.724,218.208z"/>
	<path style="fill:#D1A250;" d="M280.707,189.988c-1.264-3.789-2.365-6.508-3.033-9.329c-0.345-1.457-1.65-3.888,1.471-4.109
		c2.001-0.141,3.575,1.069,3.75,3.146C283.162,182.849,282.796,185.971,280.707,189.988z"/>
	<path style="fill:#D1A250;" d="M316.186,244.276h-45.453c0.867,0.533,1.714,1.223,2.55,2.1c-0.805,0.272-1.599,0.533-2.393,0.805
		c-3.584,1.212-7.053,2.487-10.24,4.211c-2.947,1.609-5.653,3.615-7.993,6.353c-0.867,1.003-2.309,1.358-3.824,1.358
		c-0.836,0-1.693-0.104-2.476-0.261c-1.557-0.303-2.853-0.825-3.26-1.191c-3.041-2.79-4.723,0.533-8.683,1.087
		c1.066-1.296,2.017-2.644,2.905-3.971c1.045-1.557,2.017-3.082,3.03-4.451c2.842-3.803,6.113-6.363,12.591-4.963
		c0.24,0.052,0.47,0.084,0.711,0.073c1.128,0,2.299-0.543,3.532-1.149h-37.522c0.899,1.202,2.017,2.33,3.406,3.344
		c1.296,0.961,1.881,1.829,1.891,2.696c0.01,1.003-0.742,2.017-2.027,3.166c-1.327,1.191-2.424,2.675-3.156,4.326
		c-0.408,0.888-0.7,1.829-0.867,2.811c-1.327,7.764-5.642,14.054-10.062,20.208c-7.784,10.867-5.998,22.267-1.693,33.447
		c1.703,4.43,3.103,7.931-0.01,12.11c-2.372,3.176-1.599,6.468,0.408,9.655c3.751,5.987,4.42,12.622,3.176,19.352
		c-7.262,39.121-5.277,78.482-3.093,117.844c0.543,9.624,0.219,19.362,4.086,28.557c0.888,2.132,0.293,4.326-0.752,6.259
		C225.583,510.642,240.63,512,256,512c2.926,0,5.831-0.052,8.735-0.146c2.759-11.567,3.699-23.479,3.626-35.6
		c-0.042-5.987-0.387-11.995-1.087-17.93c-1.745-14.43-4.618-28.275-0.125-43.332c4.712-15.809-0.825-31.869-7.084-46.989
		c-0.888-2.132-2.121-4.148-2.696-6.353c-1.4-5.277,0.178-9.738,5.036-12.33c5.277-2.821,8.777,0.334,11.515,4.462
		c3.271,4.953,4.315,10.616,4.775,16.415c0.313,3.835,0.575,7.68,1.526,11.619c5.381-7.534,6.708-16.248,6.322-24.984
		c-0.784-18.098-5.475-34.941-18.014-48.87c-3.688-4.096-6.708-8.756-9.206-13.74c-2.894-5.799-4.18-12.016-2.539-18.139
		c2.612-9.707,5.81-15.109,10.156-17.021h0.01c4.378-1.912,9.916-0.313,17.209,3.992c6.666,3.95,12.058,9.341,15.632,16.238
		c1.672,3.218,2.623,4.43,6.363,1.881c9.561-6.51,11.337-12.487,5.872-22.706c-0.899-1.703-2.738-3.072-2.466-5.496
		c2.445,0.376,3.009,3.563,6.384,3.271C316.458,252.343,316.479,248.33,316.186,244.276z M222.166,278.737
		c0.543,0.387,1.087,0.784,1.641,1.181c-2.947,4.43-5.904,8.85-9.895,14.858C213.023,285.748,219.46,283.366,222.166,278.737z
		 M221.571,307.545c0.711,0.125,1.421,0.251,2.132,0.387c-1.327,6.823-2.654,13.657-3.992,20.49
		C212.835,320.125,221.727,314.64,221.571,307.545z M224.852,480.329c-6.52-45.411-5.716-90.666,3.166-135.69
		C229.961,389.977,237.558,435.419,224.852,480.329z M285.435,450.915c-0.084-3.594-0.167-7.241-3.427-11.191
		c-0.596,9.373-1.128,17.669-1.641,25.987c-0.972,15.475-3.281,30.73-7.147,45.714c6.687-0.439,13.302-1.139,19.843-2.09
		c-3.239-6.583-5.193-14.127-6.06-22.528C285.769,474.864,285.717,462.89,285.435,450.915z"/>
	<path style="fill:#D1A250;" d="M291.987,207.15c-6.73,3.937-13.647,7.541-20.488,11.284l0.222-0.229
		c-9.197,7.527-19.359,13.786-28.3,22.243c-8.893-14.916-8.394-30.761-8.92-48.484c7.104,12.123,10.904,23.601,16.448,34.629
		c-3.556-18.201,13.786-29.229,15.055-45.774l-13.734,5.373c-5.84,2.284-12.464,1.154-17.214-2.94l0,0l-5.516-4.862
		c-0.717-0.631-1.843-0.355-2.184,0.536c-0.926,2.426-2.707,6.934-4.894,11.673c0,0.007,0,0.014-0.007,0.021
		c-0.332,0.721-0.658,1.463-0.984,2.211c-0.006,0.007-0.006,0.014-0.006,0.021c-2.53,5.836-4.714,12.4-4.741,17.674
		c0.153,1.726,0.16,3.508,0.021,5.358c-0.374,5.04,0.187,10.154-0.125,15.207c-0.402,6.599,0.811,12.386,6.446,16.531
		c1.303,0.956,1.885,1.823,1.892,2.696c0.006,0.998-0.742,2.01-2.024,3.168c-1.324,1.192-2.426,2.669-3.161,4.325l17.55-3.043
		l12.546-2.177l7.499-8.407l7.749-8.691l26.879-22.18L291.987,207.15z"/>
	<path style="fill:#D1A250;" d="M288.847,206.458c-1.03-4.579,0.932-8.146,3.132-11.658
		C291.938,198.813,294.254,203.372,288.847,206.458z"/>
</g>
<path style="fill:#C2E2F2;" d="M87.255,187.995c-29.313,20.093-34.578,71.69-4.346,100.095
	c-15.224-5.057-30.672-28.724-29.594-51.437C54.598,209.645,70.959,190.834,87.255,187.995z"/>
<path style="fill:#4E5C7A;" d="M224.851,480.332c-6.515-45.413-5.719-90.668,3.168-135.694
	C229.959,389.976,237.563,435.417,224.851,480.332z"/>
<polygon style="fill:#F9D1A5;" points="240.348,250.318 253.65,245.425 269.737,235.494 280.597,250.974 257.954,257.748 
	242.706,262.757 229.074,258.599 "/>
<path style="fill:#4E5C7A;" d="M310.236,224.111c0,0,6.204,8.193,5.954,20.163s4.207,23.462-2.914,30.179
	c-7.121,6.717-15.814-14.929-15.814-14.929l-18.021-35.581L310.236,224.111z"/>
<path style="fill:#5C698E;" d="M213.913,294.775c-0.894-9.025,5.545-11.409,8.248-16.039c0.548,0.388,1.095,0.784,1.643,1.179
	C220.858,284.343,217.905,288.772,213.913,294.775z M221.572,307.543c0.707,0.132,1.421,0.256,2.135,0.388
	c-1.331,6.827-2.661,13.655-3.993,20.488C212.838,320.122,221.724,314.64,221.572,307.543z M224.851,480.332
	c-6.515-45.413-5.719-90.668,3.168-135.694C229.959,389.976,237.563,435.417,224.851,480.332z M249.637,260.712l-0.805-1.609
	c-2.476,0.01-5.13-0.909-5.736-1.452c-3.041-2.79-4.723,0.533-8.683,1.087c2.341-2.811,4.044-5.893,5.935-8.422h-15.391
	c0.01,1.003-0.742,2.017-2.027,3.166c-2.027,1.829-3.542,4.347-4.023,7.137c-1.327,7.764-5.642,14.054-10.062,20.208
	c-7.784,10.867-5.998,22.267-1.693,33.447c1.703,4.43,3.103,7.931-0.01,12.11c-2.372,3.176-1.599,6.468,0.408,9.655
	c3.751,5.987,4.42,12.622,3.176,19.352c-7.262,39.121-5.277,78.482-3.093,117.844c0.543,9.624,0.219,19.362,4.086,28.557
	c0.888,2.132,0.293,4.326-0.752,6.259c7.241,1.285,14.576,2.267,22.006,2.926c5.005-23.636,6.269-67.281,6.269-67.281
	s10.397,0,3.124-63.415C235.081,316.855,249.637,260.712,249.637,260.712z"/>
<g>
	<path style="fill:#4E5C7A;" d="M223.804,279.915c-2.946,4.429-5.898,8.859-9.891,14.861c-0.894-9.025,5.545-11.409,8.248-16.039
		C222.709,279.124,223.256,279.52,223.804,279.915z"/>
	<path style="fill:#4E5C7A;" d="M223.707,307.93c-1.331,6.827-2.661,13.655-3.993,20.488c-6.875-8.296,2.01-13.779,1.858-20.877
		C222.279,307.674,222.993,307.799,223.707,307.93z"/>
</g>
<g>
	<path style="fill:#5C698E;" d="M315.942,256.243c-3.369,0.284-3.937-2.897-6.383-3.279c-0.271,2.433,1.566,3.798,2.474,5.503
		c5.462,10.217,3.68,16.192-5.878,22.7c-3.737,2.551-4.693,1.337-6.363-1.879c-3.577-6.896-8.962-12.289-15.63-16.233
		c-7.291-4.311-12.837-5.912-17.211-4c0,0-0.007,0-0.007,0.006v-0.006c-2.087-3.008-4.214-5.538-6.293-7.666
		c3.188-1.726,6.654-2.995,10.237-4.208c0.797-0.271,1.595-0.54,2.398-0.811c-3.514-3.68-7.257-4.055-11.298-3.819
		c-3.056,0.173-5.816,2.863-8.338,2.869c-5.878-4.09-10.231-4.977-10.231-4.977c8.941-8.456,19.103-14.715,28.3-22.243l-0.222,0.229
		c6.841-3.743,13.766-7.347,20.496-11.284c2.953-1.726,4.832-1.275,7.007,1.227c4.249,4.908,7.743,10.3,11.236,15.734
		c2.766,4.298,1.026,4.949-3.133,4.679c-5.988-0.388-12.039-0.693-18.424,2.661c7.874,1.65,14.819,3.154,21.791,4.554
		c2.634,0.527,4.977,1.227,5.351,4.408C316.454,245.77,316.621,251.108,315.942,256.243z"/>
	<path style="fill:#5C698E;" d="M284.161,263.057c-7.291-4.311-12.837-5.912-17.211-4h-0.007c0,0-10.355-5.296-24.218,8.567
		l3.625-8.782c0.79,0.16,1.643,0.263,2.482,0.263c1.511-0.006,2.959-0.361,3.819-1.358c2.343-2.745,5.053-4.748,7.999-6.356
		c3.188-1.726,6.654-2.995,10.237-4.208l10.404-1.989L284.161,263.057z"/>
	<polygon style="fill:#5C698E;" points="243.419,240.448 224.955,250.318 240.348,250.318 257.365,244.183 	"/>
	<path style="fill:#5C698E;" d="M198.816,108.421h-0.48c-1.654,0-2.995-1.341-2.995-2.995V87.165h6.469v18.261
		C201.811,107.08,200.47,108.421,198.816,108.421z"/>
</g>
<path style="fill:#D1A250;" d="M217.302,55.695c-3.438,2.232-4.519,6.245-7.417,8.123c-2.613,1.692-3.507,2.925-3.382,5.622
	c0.007,0.208,0.021,0.423,0.028,0.631c-7.666,3.438-12.718,1.102-16.011-2.856c1.116-0.381,2.232-0.755,3.348-1.116
	c-0.901-3.147-4.319-1.469-4.977-4.388c4.693-1.643,4.782-4.942,3.667-9.412c-0.915-3.653,0.166-7.556,3.036-11.991
	c1.109,6.917,6.911,11.541,3.071,18.465c3.639-0.055,4.908-2.087,5.177-4.359c0.672-5.719,1.476-11.617-2.745-16.503
	c-5.642-6.515-5.809-13.121-0.95-20.149c1.545-2.232,2.571-4.831,3.833-7.257h1.387c0.957,3.826,1.407,7.625-0.429,11.36
	c-1.213,2.482-0.666,4.935,0.326,7.34c2.897,7.056,7.444,13.855,3.993,22.146c1.261-2.287,2.869-4.027,4.679-5.427
	C213.933,45.921,217.081,50.316,217.302,55.695z"/>
<path d="M144.205,95.085c-0.222,0.402-0.471,0.784-0.748,1.13C143.7,95.841,143.949,95.466,144.205,95.085z"/>
<path style="fill:#C2E2F2;" d="M501.927,327.325c-0.313,1.097-0.637,2.194-0.972,3.291c-0.334,1.087-0.669,2.173-1.024,3.26
	c-2.685-0.481-5.465-0.669-8.192-0.993c-7.147-0.857-13.636,2.497-21.117,3.877c7.523-7.178,7.649-7.68,3.093-16.718
	c-2.926-5.789-6.75-11.003-11.295-15.621c-3.218-3.26-6.656-6.301-10.679-10.094c5.172,0.481,8.568,2.393,11.87,4.472
	c9.446,5.925,16.05,14.461,21.285,24.064c1.776,3.25,3.521,4.723,7.429,4.368C495.532,326.938,498.761,326.959,501.927,327.325z"/>
<path style="fill:#D1A250;" d="M214.436,38.307c-1.567-2.789-2.877-5.177-4.241-7.534c-1.339-2.31-2.056-4.64-0.346-7.067
	c0.691-0.98,1.816-1.862,2.888-1.23c2.361,1.392,2.98,3.941,3.395,6.451C216.631,31.952,216.161,34.862,214.436,38.307z"/>
<path style="fill:#C2E2F2;" d="M42.621,320.805c-2.706,5.674-6.311,11.567,4.639,15.454c-4.775,1.421-6.834-0.01-8.871-0.794
	c-9.059-3.469-17.544-2.915-25.746,0.23c-0.282-0.888-0.575-1.787-0.857-2.685c-0.47-1.494-0.93-2.999-1.369-4.514
	c4.671-1.202,9.488-1.557,14.378-0.993c3.271,0.387,4.974-0.564,6.426-3.542c3.051-6.228,7.105-11.849,11.818-16.969
	c6.98-7.596,13.688-11.327,21.87-11.901C54.983,302.017,47.595,310.408,42.621,320.805z"/>
<g>
</g>
<g>
</g>
<g>
</g>
<g>
</g>
<g>
</g>
<g>
</g>
<g>
</g>
<g>
</g>
<g>
</g>
<g>
</g>
<g>
</g>
<g>
</g>
<g>
</g>
<g>
</g>
<g>
</g>
</svg>
