<?xml version="1.0" encoding="iso-8859-1"?>
<!-- Generator: Adobe Illustrator 19.0.0, SVG Export Plug-In . SVG Version: 6.00 Build 0)  -->
<svg version="1.1" id="Capa_1" xmlns="http://www.w3.org/2000/svg" xmlns:xlink="http://www.w3.org/1999/xlink" x="0px" y="0px"
	 viewBox="0 0 512 512" style="enable-background:new 0 0 512 512;" xml:space="preserve">
<path style="fill:#FF6700;" d="M512,256c0,9.383-0.502,18.641-1.494,27.763C496.671,412.087,388.002,512,256,512
	S15.329,412.087,1.494,283.763C0.502,274.641,0,265.383,0,256c0-4.754,0.125-9.467,0.387-14.158C7.732,107.039,119.369,0,256,0
	c136.673,0,248.33,107.102,255.613,241.957C511.875,246.606,512,251.288,512,256z"/>
<g>
	<path style="fill:#EDEDED;" d="M37.167,242.667c-4.723-4.733-11.003-7.095-18.819-7.095c-7.346,0-13.343,2.09-17.962,6.269
		C0.125,246.533,0,251.246,0,256c0,9.383,0.502,18.641,1.494,27.763h10.742V261.59c0-5.977,2.038-9.132,6.113-9.467
		c4.075,0.334,6.113,3.49,6.113,9.467v22.173h19.811v-21.588C44.272,253.774,41.9,247.265,37.167,242.667z"/>
	<path style="fill:#EDEDED;" d="M97.186,268.392c-3.814-0.199-5.851-2.894-6.113-8.087c0.334-5.183,2.372-7.91,6.113-8.182
		c3.281,0.199,5.256,2.205,5.914,6.019h19.811c-0.731-6.51-3.03-11.661-6.896-15.475c-4.733-4.733-11.013-7.095-18.829-7.095
		s-14.064,2.361-18.725,7.095c-4.472,4.274-6.834,10.146-7.095,17.638c0.324,7.429,2.696,13.302,7.095,17.638
		c4.66,4.733,10.909,7.105,18.725,7.105s14.096-2.372,18.829-7.105c3.939-3.939,6.238-9.122,6.896-15.569H103.1
		C102.442,266.188,100.467,268.194,97.186,268.392z"/>
	<path style="fill:#EDEDED;" d="M174.153,274.798l-8.767-12.225l5.319-9.561c1.975-2.957,2.957-5.517,2.957-7.68
		c0-1.379-0.23-2.57-0.69-3.553c-2.173-4.138-5.423-6.207-9.759-6.207c-3.615,0-6.343,1.212-8.182,3.647l-9.164,15.172v-38.034
		c0-6.635-3.511-9.958-10.543-9.958c-6.959,0-10.449,3.323-10.449,9.958v67.406h20.992v-14.785l10.94,14.785h17.439
		c2.038-0.658,3.062-1.703,3.062-3.156v-0.982C177.246,279.364,176.191,277.755,174.153,274.798z"/>
	<path style="fill:#EDEDED;" d="M221.55,264.547h-16.154c-0.857,2.957-2.497,4.43-4.932,4.43c-2.957,0-4.692-2.1-5.224-6.301h25.621
		c4.075-0.136,5.757-2.403,5.026-6.802c-0.92-5.319-3.114-9.728-6.593-13.208c-4.733-4.733-11.013-7.095-18.829-7.095
		c-7.816,0-14.054,2.361-18.725,7.095c-2.56,2.435-4.43,5.486-5.611,9.164c-1.254,4.336-1.578,8.673-0.993,13.009
		c0.92,5.193,3.124,9.561,6.604,13.103c4.671,4.733,10.909,7.105,18.725,7.105c7.816,0,14.096-2.372,18.829-7.105
		c2.487-2.487,4.336-5.517,5.517-9.059C225.928,265.989,224.841,264.547,221.55,264.547z M195.636,253.607
		c0.92-2.957,2.529-4.441,4.827-4.441c2.957,0,4.733,2.142,5.319,6.416h-10.543L195.636,253.607z"/>
	<path style="fill:#EDEDED;" d="M239.397,206.399c-6.969,0-10.449,3.323-10.449,9.958v67.406h20.992v-67.406
		C249.94,209.721,246.418,206.399,239.397,206.399z"/>
	<path style="fill:#EDEDED;" d="M296.552,242.667c-4.733-4.733-11.013-7.095-18.829-7.095c-7.816,0-14.054,2.361-18.725,7.095
		c-4.462,4.274-6.834,10.146-7.095,17.638c0.334,7.429,2.696,13.302,7.095,17.638c4.671,4.733,10.909,7.105,18.725,7.105
		c7.816,0,14.096-2.372,18.829-7.105c4.336-4.336,6.698-10.209,7.095-17.638C303.25,252.813,300.889,246.941,296.552,242.667z
		 M277.723,268.392c-3.814-0.199-5.841-2.894-6.113-8.087c0.334-5.183,2.372-7.91,6.113-8.182c3.814,0.272,5.851,2.999,6.113,8.182
		C283.575,265.498,281.537,268.194,277.723,268.392z"/>
	<path style="fill:#EDEDED;" d="M346.812,206.399c-6.969,0-10.449,3.291-10.449,9.853v19.613c-1.442-0.199-3.051-0.293-4.827-0.293
		c-7.826,0-14.096,2.361-18.829,7.095c-4.336,4.274-6.698,10.146-7.095,17.638c0.397,7.429,2.759,13.302,7.095,17.638
		c4.733,4.733,11.003,7.105,18.829,7.105c7.879,0,14.127-2.372,18.725-7.105c4.399-4.336,6.76-10.209,7.095-17.638v-44.053
		C357.355,209.69,353.834,206.399,346.812,206.399z M331.536,268.392c-3.814-0.199-5.851-2.894-6.113-8.087
		c0.261-5.183,2.299-7.91,6.113-8.182c3.741,0.272,5.778,2.999,6.102,8.182C337.377,265.498,335.339,268.194,331.536,268.392z"/>
	<path style="fill:#EDEDED;" d="M406.632,264.547h-16.165c-0.857,2.957-2.497,4.43-4.932,4.43c-2.957,0-4.692-2.1-5.224-6.301
		h25.621c4.075-0.136,5.757-2.403,5.026-6.802c-0.92-5.319-3.114-9.728-6.593-13.208c-4.733-4.733-11.013-7.095-18.829-7.095
		s-14.054,2.361-18.725,7.095c-2.56,2.435-4.43,5.486-5.611,9.164c-1.254,4.336-1.578,8.673-0.993,13.009
		c0.92,5.193,3.124,9.561,6.604,13.103c4.671,4.733,10.909,7.105,18.725,7.105s14.096-2.372,18.829-7.105
		c2.487-2.487,4.336-5.517,5.517-9.059C411,265.989,409.913,264.547,406.632,264.547z M380.709,253.607
		c0.92-2.957,2.529-4.441,4.827-4.441c2.957,0,4.733,2.142,5.319,6.416h-10.543L380.709,253.607z"/>
	<path style="fill:#EDEDED;" d="M458.658,242.667c-4.723-4.733-11.003-7.095-18.819-7.095s-14.064,2.361-18.725,7.095
		c-4.472,4.274-6.834,10.146-7.095,17.638c0.324,7.429,2.696,13.302,7.095,17.638c4.66,4.733,10.909,7.105,18.725,7.105
		s14.096-2.372,18.819-7.105c4.336-4.336,6.708-10.209,7.095-17.638C465.366,252.813,462.994,246.941,458.658,242.667z
		 M439.839,268.392c-3.814-0.199-5.851-2.894-6.113-8.087c0.324-5.183,2.361-7.91,6.113-8.182c3.803,0.272,5.841,2.999,6.113,8.182
		C445.68,265.498,443.643,268.194,439.839,268.392z"/>
	<path style="fill:#EDEDED;" d="M511.613,241.957c-4.629-4.263-10.658-6.384-18.066-6.384c-7.816,0-14.096,2.361-18.819,7.095
		c-4.671,4.671-7.001,11.17-7.001,19.508v21.588h19.707V261.59c0-5.977,2.038-9.132,6.113-9.467c4.075,0.334,6.113,3.49,6.113,9.467
		v22.173h10.846C511.498,274.641,512,265.383,512,256C512,251.288,511.875,246.606,511.613,241.957z"/>
	<path style="fill:#EDEDED;" d="M61.735,229.978l4.066-4.066c4.481-4.481,4.722-11.802,0.309-16.351
		c-4.53-4.67-12.015-4.67-16.545,0c-4.413,4.548-4.171,11.87,0.309,16.351l4.066,4.066c1.888,1.888,1.945,4.932,0.126,6.889
		l-4.011,4.318c-1.703,1.833-2.65,4.242-2.65,6.744v35.834h20.861v-35.834c0-2.501-0.947-4.911-2.65-6.744l-4.011-4.318
		C59.79,234.911,59.847,231.866,61.735,229.978z"/>
</g>
<g>
</g>
<g>
</g>
<g>
</g>
<g>
</g>
<g>
</g>
<g>
</g>
<g>
</g>
<g>
</g>
<g>
</g>
<g>
</g>
<g>
</g>
<g>
</g>
<g>
</g>
<g>
</g>
<g>
</g>
</svg>
