<?xml version="1.0" encoding="iso-8859-1"?>
<!-- Generator: Adobe Illustrator 19.0.0, SVG Export Plug-In . SVG Version: 6.00 Build 0)  -->
<svg version="1.1" id="Capa_1" xmlns="http://www.w3.org/2000/svg" xmlns:xlink="http://www.w3.org/1999/xlink" x="0px" y="0px"
	 viewBox="0 0 512 512" style="enable-background:new 0 0 512 512;" xml:space="preserve">
<circle style="fill:#F2F2F2;" cx="256" cy="256" r="256"/>
<g>
	<path style="fill:#0062A1;" d="M463.136,261.292c0,35.216-8.87,68.367-24.504,97.329c-34.667,64.256-102.607,102.7-180.749,102.7
		c-79.782,0-148.938-40.301-182.901-106.786c-14.295-27.979-22.352-59.667-22.352-93.243c0-113.358,91.896-205.253,205.253-205.253
		S463.136,147.935,463.136,261.292z"/>
	<polygon style="fill:#0062A1;" points="231.903,14.105 236.617,24.696 248.147,23.484 239.531,31.241 244.247,41.831 
		234.208,36.035 225.592,43.793 228.003,32.452 217.963,26.656 229.492,25.444 	"/>
	<polygon style="fill:#0062A1;" points="185.214,23.604 191.863,33.1 202.949,29.711 195.973,38.969 202.622,48.465 191.661,44.691 
		184.685,53.95 184.886,42.359 173.925,38.584 185.012,35.195 	"/>
	<polygon style="fill:#0062A1;" points="141.196,41.837 149.535,49.89 159.771,44.448 154.689,54.867 163.028,62.92 151.549,61.306 
		146.466,71.726 144.453,60.309 132.974,58.696 143.21,53.253 	"/>
	<polygon style="fill:#0062A1;" points="101.466,68.134 111.189,74.448 120.198,67.152 117.197,78.35 126.92,84.664 115.343,85.27 
		112.342,96.468 108.188,85.645 96.611,86.252 105.62,78.957 	"/>
	<polygon style="fill:#0062A1;" points="67.484,101.529 78.232,105.871 85.684,96.991 84.875,108.555 95.624,112.898 
		84.376,115.703 83.567,127.266 77.423,117.436 66.174,120.241 73.627,111.36 	"/>
	<polygon style="fill:#0062A1;" points="40.497,140.794 51.877,143.006 57.497,132.866 58.91,144.373 70.289,146.585 
		59.783,151.484 61.195,162.99 53.29,154.512 42.783,159.412 48.403,149.272 	"/>
	<polygon style="fill:#0062A1;" points="21.499,184.487 33.091,184.487 36.674,173.461 40.256,184.487 51.849,184.487 
		42.47,191.301 46.053,202.327 36.674,195.512 27.295,202.327 30.878,191.301 	"/>
	<polygon style="fill:#0062A1;" points="11.187,231.002 22.567,228.79 23.979,217.283 29.599,227.423 40.979,225.211 
		33.073,233.689 38.694,243.829 28.186,238.929 20.28,247.408 21.693,235.901 	"/>
	<polygon style="fill:#0062A1;" points="9.939,278.63 20.688,274.288 19.879,262.723 27.33,271.603 38.079,267.261 31.936,277.092 
		39.388,285.973 28.139,283.168 21.996,293 21.187,281.435 	"/>
	<polygon style="fill:#0062A1;" points="17.803,325.622 27.526,319.308 24.525,308.11 33.534,315.406 43.257,309.092 
		39.102,319.914 48.111,327.211 36.535,326.604 32.38,337.427 29.379,326.229 	"/>
	<polygon style="fill:#0062A1;" points="34.488,370.249 42.827,362.196 37.746,351.777 47.982,357.219 56.321,349.166 
		54.308,360.583 64.543,366.026 53.063,367.639 51.051,379.056 45.968,368.636 	"/>
	<polygon style="fill:#0062A1;" points="280.097,14.105 275.382,24.696 263.853,23.484 272.469,31.241 267.753,41.831 
		277.792,36.035 286.408,43.793 283.997,32.452 294.037,26.656 282.508,25.444 	"/>
	<polygon style="fill:#0062A1;" points="326.786,23.604 320.137,33.1 309.051,29.711 316.027,38.969 309.378,48.465 320.339,44.691 
		327.315,53.95 327.114,42.359 338.075,38.584 326.988,35.195 	"/>
	<polygon style="fill:#0062A1;" points="370.804,41.837 362.465,49.89 352.229,44.448 357.311,54.867 348.972,62.92 360.451,61.306 
		365.534,71.726 367.547,60.309 379.026,58.696 368.79,53.253 	"/>
	<polygon style="fill:#0062A1;" points="410.534,68.134 400.811,74.448 391.802,67.152 394.803,78.35 385.08,84.664 396.657,85.27 
		399.658,96.468 403.812,85.645 415.389,86.252 406.38,78.957 	"/>
	<polygon style="fill:#0062A1;" points="444.516,101.529 433.768,105.871 426.316,96.991 427.125,108.555 416.376,112.898 
		427.624,115.703 428.433,127.266 434.577,117.436 445.826,120.241 438.373,111.36 	"/>
	<polygon style="fill:#0062A1;" points="471.503,140.794 460.123,143.006 454.503,132.866 453.09,144.373 441.711,146.585 
		452.217,151.484 450.804,162.99 458.71,154.512 469.217,159.412 463.597,149.272 	"/>
	<polygon style="fill:#0062A1;" points="490.501,184.487 478.909,184.487 475.326,173.461 471.744,184.487 460.151,184.487 
		469.53,191.301 465.947,202.327 475.326,195.512 484.705,202.327 481.122,191.301 	"/>
	<polygon style="fill:#0062A1;" points="500.813,231.002 489.433,228.79 488.021,217.283 482.401,227.423 471.021,225.211 
		478.927,233.689 473.306,243.829 483.814,238.929 491.72,247.408 490.307,235.901 	"/>
	<polygon style="fill:#0062A1;" points="502.061,278.63 491.312,274.288 492.121,262.723 484.67,271.603 473.921,267.261 
		480.064,277.092 472.611,285.973 483.861,283.168 490.004,293 490.813,281.435 	"/>
	<polygon style="fill:#0062A1;" points="494.197,325.622 484.474,319.308 487.475,308.11 478.466,315.406 468.743,309.092 
		472.898,319.914 463.889,327.211 475.465,326.604 479.62,337.427 482.621,326.229 	"/>
	<polygon style="fill:#0062A1;" points="477.512,370.249 469.173,362.196 474.254,351.777 464.018,357.219 455.679,349.166 
		457.692,360.583 447.457,366.026 458.937,367.639 460.949,379.056 466.032,368.636 	"/>
</g>
<g>
	<path style="fill:#F2F2F2;" d="M172.771,123.948c-0.549-0.705-1.138-1.377-1.791-1.985c-1.795-1.672-3.989-3.09-6.584-4.253
		c-3.194-1.432-7.142-2.147-11.84-2.147c-6.315,0-11.674,1.396-16.079,4.185c-4.405,2.791-7.93,6.278-10.572,10.463
		c-2.644,4.185-4.479,8.719-5.507,13.601c-1.029,4.884-1.376,9.417-1.046,13.601c0.33,4.185,1.284,7.673,2.863,10.463
		c1.578,2.791,3.651,4.185,6.222,4.185c1.173,0,2.128-0.422,2.863-1.266c0.734-0.843,1.083-1.779,1.047-2.809
		c-0.038-1.027-0.551-1.963-1.542-2.809c-0.992-0.843-2.626-1.266-4.901-1.266c0-1.982,0.771-3.541,2.312-4.681
		c1.542-1.138,3.249-1.724,5.121-1.762c1.872-0.037,3.579,0.533,5.121,1.707c1.542,1.176,2.312,3.083,2.312,5.727
		c0,1.762-0.404,3.359-1.211,4.791c-0.809,1.432-1.871,2.662-3.194,3.69c-1.322,1.029-2.826,1.836-4.515,2.423
		c-1.69,0.588-3.414,0.881-5.176,0.881c-4.333,0-7.912-0.936-10.737-2.809c-2.827-1.872-4.919-4.35-6.278-7.433
		c-1.359-3.084-2.02-6.608-1.982-10.572c0.037-3.964,0.732-7.984,2.093-12.059c1.357-4.075,3.376-8.095,6.057-12.059
		c2.679-3.964,5.964-7.489,9.857-10.572c3.89-3.083,8.351-5.562,13.381-7.433c5.028-1.872,10.628-2.809,16.795-2.809
		c8.222,0,14.775,1.194,19.659,3.58c4.882,2.387,8.425,5.379,10.628,8.976c2.203,3.599,3.194,7.508,2.974,11.729
		c-0.22,4.222-1.341,8.132-3.358,11.729c-2.021,3.598-4.773,6.59-8.26,8.976c-3.488,2.387-7.398,3.58-11.729,3.58
		c-2.718,0-5.214-0.402-7.489-1.211l1.432-4.296c1.248,0.588,2.384,1.01,3.414,1.266c1.027,0.258,2.019,0.386,2.974,0.386
		c2.495,0,4.661-1.027,6.497-3.083c1.835-2.054,3.174-4.626,4.02-7.709c0.843-3.083,1.064-6.405,0.66-9.967
		c-0.373-3.287-1.419-6.309-3.137-9.066c-0.286-0.459-0.608-0.894-0.939-1.321L172.771,123.948z"/>
	<path style="fill:#F2F2F2;" d="M205.307,146.103c-1.034,3.424-2.003,6.653-2.907,9.688c-0.775,2.584-1.55,5.151-2.325,7.702
		c-0.775,2.552-1.356,4.473-1.744,5.765c-0.775,2.456-1.066,4.021-0.871,4.699c0.193,0.678,0.548,1.083,1.066,1.211
		c0.711,0.193,1.63-0.048,2.761-0.726c1.13-0.678,2.084-1.856,2.858-3.536h1.356c-0.775,2.003-1.68,3.698-2.713,5.087
		c-1.034,1.39-2.116,2.519-3.245,3.391c-1.131,0.871-2.228,1.502-3.294,1.889c-1.066,0.388-2.019,0.581-2.858,0.581
		c-1.163,0-2.261-0.34-3.294-1.017c-1.034-0.678-1.615-2.05-1.744-4.118c-1.356,1.421-2.94,2.632-4.747,3.633
		c-1.809,1.002-3.585,1.502-5.328,1.502c-1.228,0-2.261-0.402-3.1-1.211c-0.84-0.807-1.356-2.034-1.551-3.681
		c-0.193-1.647-0.015-3.73,0.533-6.248c0.548-2.519,1.565-5.458,3.052-8.816c1.485-3.422,3.391-6.346,5.716-8.768
		c2.325-2.422,4.795-4.311,7.411-5.668c2.615-1.356,5.232-2.163,7.847-2.422C200.802,144.78,203.176,145.134,205.307,146.103z
		 M188.644,172.454c0.194-0.969,0.485-2.034,0.871-3.197l5.716-19.085c-0.388-0.129-0.775-0.193-1.163-0.193
		c-1.033,0-2.099,0.598-3.196,1.792c-1.099,1.195-2.132,2.713-3.1,4.554c-0.969,1.841-1.858,3.812-2.664,5.91
		c-0.809,2.099-1.39,4.069-1.744,5.91c-0.355,1.841-0.452,3.359-0.29,4.554c0.161,1.196,0.661,1.792,1.502,1.792
		c0.645,0,1.356-0.242,2.132-0.726C187.482,173.278,188.127,172.842,188.644,172.454z"/>
	<path style="fill:#F2F2F2;" d="M220.419,145.23l-1.356,4.359l8.332-5.522c-0.388,2.325-0.404,4.117-0.048,5.377
		c0.354,1.259,0.921,2.165,1.696,2.713c0.775,0.55,1.679,0.775,2.713,0.678c1.032-0.097,2.034-0.371,3.003-0.823
		c-2.068,2.456-4.069,4.28-6.007,5.474c-1.937,1.195-3.667,1.841-5.183,1.937c-1.518,0.097-2.777-0.354-3.778-1.356
		c-1.002-1.001-1.632-2.534-1.889-4.602l-8.525,28.676h-8.816l11.045-36.911L220.419,145.23L220.419,145.23z"/>
	<path style="fill:#F2F2F2;" d="M255.683,146.103c-1.034,3.424-2.003,6.653-2.907,9.688c-0.775,2.584-1.55,5.151-2.325,7.702
		c-0.775,2.552-1.356,4.473-1.744,5.765c-0.775,2.456-1.066,4.021-0.871,4.699c0.193,0.678,0.548,1.083,1.066,1.211
		c0.711,0.193,1.63-0.048,2.761-0.726c1.13-0.678,2.084-1.856,2.858-3.536h1.356c-0.775,2.003-1.68,3.698-2.713,5.087
		c-1.034,1.39-2.116,2.519-3.245,3.391c-1.131,0.871-2.228,1.502-3.294,1.889c-1.066,0.388-2.019,0.581-2.858,0.581
		c-1.163,0-2.261-0.34-3.294-1.017c-1.034-0.678-1.615-2.05-1.744-4.118c-1.356,1.421-2.94,2.632-4.747,3.633
		c-1.809,1.002-3.585,1.502-5.328,1.502c-1.228,0-2.261-0.402-3.1-1.211c-0.84-0.807-1.356-2.034-1.551-3.681
		c-0.193-1.647-0.015-3.73,0.533-6.248c0.548-2.519,1.565-5.458,3.052-8.816c1.485-3.422,3.391-6.346,5.716-8.768
		c2.325-2.422,4.795-4.311,7.411-5.668c2.615-1.356,5.232-2.163,7.847-2.422C251.178,144.78,253.552,145.134,255.683,146.103z
		 M239.02,172.454c0.194-0.969,0.485-2.034,0.871-3.197l5.716-19.085c-0.388-0.129-0.775-0.193-1.163-0.193
		c-1.033,0-2.099,0.598-3.196,1.792c-1.099,1.195-2.132,2.713-3.1,4.554c-0.969,1.841-1.858,3.812-2.664,5.91
		c-0.809,2.099-1.39,4.069-1.744,5.91c-0.355,1.841-0.452,3.359-0.29,4.554c0.161,1.196,0.661,1.792,1.502,1.792
		c0.645,0,1.356-0.242,2.132-0.726C237.857,173.278,238.502,172.842,239.02,172.454z"/>
	<path style="fill:#F2F2F2;" d="M270.893,157.826c0.388-1.291,0.678-2.308,0.871-3.052c0.193-0.742,0.306-1.308,0.339-1.696
		c0.031-0.388-0.017-0.645-0.145-0.775c-0.13-0.129-0.324-0.226-0.581-0.29c-0.712-0.064-1.39,0.356-2.034,1.259
		c-0.646,0.905-1.325,2.003-2.034,3.294l-7.654,25.576h-8.719l10.947-36.911h8.816l-1.356,4.359
		c1.097-1.291,2.277-2.341,3.536-3.148c1.259-0.807,2.567-1.211,3.924-1.211c1.291,0,2.356,0.388,3.196,1.163
		c0.839,0.775,1.194,2.294,1.066,4.554c1.291-1.679,2.648-3.052,4.069-4.118c1.42-1.066,2.906-1.599,4.456-1.599
		c2.067,0,3.343,0.743,3.826,2.228c0.485,1.487,0.516,3.327,0.097,5.522c-0.421,2.196-1.114,4.602-2.082,7.217
		c-0.969,2.615-1.858,5.023-2.663,7.217c-0.809,2.196-1.342,4.037-1.599,5.522c-0.259,1.487,0.097,2.228,1.066,2.228
		c0.709,0,1.599-0.29,2.664-0.871c1.066-0.581,1.986-1.71,2.761-3.391h1.551c-0.775,2.003-1.696,3.698-2.761,5.087
		c-1.066,1.39-2.148,2.519-3.245,3.391c-1.099,0.871-2.18,1.502-3.245,1.889c-1.066,0.388-2.019,0.581-2.858,0.581
		c-1.68,0-2.891-0.419-3.633-1.259c-0.743-0.839-1.163-1.97-1.259-3.391c-0.097-1.42,0.048-3.019,0.436-4.796
		c0.388-1.775,0.887-3.6,1.502-5.473c0.613-1.872,1.259-3.697,1.937-5.473c0.678-1.775,1.242-3.374,1.696-4.795
		c0.45-1.42,0.726-2.551,0.823-3.391c0.097-0.839-0.114-1.259-0.63-1.259c-0.581,0-1.211,0.469-1.889,1.405
		c-0.678,0.937-1.373,2.082-2.083,3.439l-0.29,0.969l-7.266,24.026h-8.719c1.032-3.616,2.034-6.976,3.003-10.075
		c0.388-1.356,0.79-2.713,1.211-4.069c0.419-1.356,0.807-2.664,1.163-3.924c0.354-1.259,0.694-2.405,1.018-3.44
		C270.439,159.311,270.699,158.471,270.893,157.826z"/>
	<path style="fill:#F2F2F2;" d="M313.228,145.23c2.453,0,4.359,0.469,5.716,1.404c1.356,0.937,2.293,2.228,2.81,3.876
		c0.516,1.647,0.645,3.584,0.388,5.813c-0.259,2.228-0.743,4.602-1.453,7.121c-0.775,2.519-1.841,4.892-3.197,7.121
		c-1.356,2.228-2.858,4.166-4.505,5.813c-1.647,1.647-3.376,2.939-5.183,3.876c-1.809,0.937-3.585,1.405-5.328,1.405
		c-2.456,0-4.359-0.468-5.716-1.405c-1.356-0.935-2.294-2.228-2.81-3.876c-0.518-1.647-0.645-3.585-0.388-5.813
		c0.257-2.228,0.742-4.602,1.453-7.121c0.709-2.519,1.727-4.892,3.052-7.121c1.323-2.228,2.81-4.166,4.457-5.813
		c1.647-1.647,3.391-2.938,5.231-3.876C309.595,145.7,311.419,145.23,313.228,145.23z M304.025,177.589
		c0.775,0,1.599-0.678,2.47-2.034c0.871-1.356,1.727-3.067,2.567-5.135c0.839-2.066,1.599-4.278,2.277-6.636
		c0.678-2.357,1.178-4.568,1.502-6.636c0.323-2.067,0.419-3.778,0.29-5.135c-0.131-1.356-0.614-2.034-1.453-2.034
		c-0.84,0-1.712,0.678-2.615,2.034c-0.905,1.356-1.761,3.069-2.567,5.135c-0.809,2.068-1.518,4.28-2.132,6.636
		c-0.614,2.358-1.066,4.569-1.356,6.636c-0.29,2.068-0.372,3.778-0.241,5.135C302.894,176.911,303.313,177.589,304.025,177.589z"/>
	<path style="fill:#F2F2F2;" d="M343.258,169.257c-0.388,1.228-0.647,2.213-0.775,2.955c-0.131,0.743-0.145,1.325-0.048,1.744
		c0.097,0.421,0.257,0.712,0.484,0.872c0.226,0.162,0.468,0.276,0.726,0.339c0.581,0.193,1.437-0.048,2.567-0.726
		c1.13-0.678,2.084-1.856,2.858-3.536h1.551c-0.84,2.003-1.792,3.698-2.858,5.087c-1.066,1.39-2.148,2.519-3.245,3.391
		c-1.099,0.871-2.18,1.502-3.245,1.889c-1.066,0.388-2.051,0.581-2.955,0.581c-0.646,0-1.276-0.097-1.889-0.29
		c-0.614-0.194-1.163-0.516-1.647-0.969c-0.484-0.451-0.857-1.066-1.114-1.841c-0.259-0.775-0.388-1.775-0.388-3.003
		c-1.099,2.003-2.228,3.521-3.391,4.554c-1.163,1.033-2.487,1.55-3.972,1.55c-0.84,0-1.663-0.177-2.47-0.533
		c-0.809-0.354-1.438-0.984-1.889-1.889c-0.451-0.904-0.678-2.18-0.678-3.826s0.388-3.762,1.163-6.346l7.266-24.026h8.719
		c-1.099,3.617-2.1,6.976-3.003,10.075c-0.84,2.713-1.647,5.394-2.422,8.042c-0.774,2.649-1.356,4.618-1.744,5.91
		c-0.775,2.456-1.083,4.054-0.921,4.795c0.161,0.743,0.402,1.114,0.727,1.114c0.388,0,0.952-0.548,1.696-1.647
		c0.742-1.097,1.372-2.291,1.889-3.584l0.194-0.678l7.46-24.026h8.719c-1.099,3.617-2.132,6.976-3.1,10.075
		c-0.84,2.713-1.663,5.394-2.47,8.042C344.243,165.997,343.646,167.965,343.258,169.257z"/>
	<path style="fill:#F2F2F2;" d="M366.703,152.013c-0.518,0-1.066,0.307-1.647,0.921c-0.581,0.614-1.131,1.39-1.647,2.325
		c-0.518,0.937-1.033,1.986-1.55,3.148c-0.517,1.163-1.002,2.294-1.453,3.391l-6.103,20.345h-8.816l11.045-36.911h8.816l-1.84,6.103
		c1.291-1.808,2.663-3.278,4.117-4.408c1.453-1.13,3.019-1.696,4.699-1.696c2.067,0,3.343,0.743,3.826,2.228
		c0.485,1.487,0.499,3.327,0.048,5.522c-0.452,2.196-1.163,4.602-2.132,7.217c-0.969,2.615-1.857,5.023-2.663,7.217
		c-0.809,2.196-1.342,4.037-1.599,5.522c-0.259,1.487,0.129,2.228,1.163,2.228c0.516,0,1.34-0.29,2.47-0.871
		c1.13-0.581,2.084-1.71,2.858-3.391h1.356c-0.775,2.003-1.68,3.698-2.713,5.087c-1.034,1.39-2.116,2.519-3.245,3.391
		c-1.131,0.871-2.228,1.502-3.294,1.889c-1.066,0.388-2.019,0.581-2.858,0.581c-2.196,0-3.585-0.742-4.166-2.228
		c-0.581-1.485-0.712-3.326-0.388-5.522c0.323-2.194,0.935-4.585,1.84-7.169c0.904-2.582,1.76-4.973,2.567-7.169
		c0.807-2.195,1.404-4.035,1.792-5.522C367.574,152.756,367.412,152.013,366.703,152.013z"/>
	<path style="fill:#F2F2F2;" d="M383.462,145.618l4.844-15.889h8.719l-1.453,4.844c-0.452,1.487-0.954,3.182-1.502,5.087
		c-0.55,1.906-1.147,3.892-1.792,5.958h6.103v4.359h-7.362l-4.747,15.694c-1.099,3.294-1.632,5.765-1.599,7.411
		c0.031,1.647,0.564,2.47,1.599,2.47c0.969,0,2.018-0.613,3.148-1.841c1.13-1.226,2.228-2.664,3.294-4.311
		c1.066-1.647,2.034-3.294,2.906-4.94c0.871-1.647,1.502-2.89,1.889-3.73h1.55c-0.581,1.55-1.453,3.536-2.615,5.958
		c-1.163,2.422-2.504,4.747-4.021,6.976c-1.518,2.228-3.149,4.15-4.892,5.765c-1.744,1.615-3.52,2.422-5.328,2.422
		c-2.906,0-4.861-1.388-5.861-4.166c-1-2.776-0.693-6.781,0.921-12.013l4.844-15.694h-3.488v-4.359L383.462,145.618L383.462,145.618
		z"/>
	<path style="fill:#F2F2F2;" d="M171.041,129.783c-11.352,6.45-16.383,17.544-18.963,25.541
		c-2.58,7.998-15.609,41.795-34.185,41.795c-4.913,0-8.527-1.191-11.185-2.943c-2.433-1.604-3.845-4.369-3.845-7.283l0,0
		c0-0.898,0.53-1.722,1.362-2.061c1.38-0.562,3.315-1.79,3.315-4.258c0-3.837-5.901-8.222-9.255-2.546
		c-3.354,5.676,0,17.286,12.384,20.64s31.992-4.644,39.731-16.77C158.142,169.772,157.884,148.616,171.041,129.783z"/>
	<path style="fill:#F2F2F2;" d="M438.631,358.622c-34.667,64.256-102.607,107.924-180.749,107.924
		c-79.782,0-148.938-45.526-182.901-112.011l106.555-114.697c2.701-2.91,6.431-4.644,10.395-4.845l3.428-0.17
		c3.777-0.186,7.346-1.772,10.015-4.45l33.529-34.845c10.232-10.635,27.175-10.874,37.708-0.542l8.877,8.707
		c1.261,1.238,2.717,2.26,4.288,3.026c1.572,0.766,3.266,1.293,5.023,1.525c3.56,0.48,6.873,2.121,9.42,4.668l25.65,25.65
		c2.237,2.237,4.714,4.226,7.36,5.929c2.655,1.695,5.488,3.119,8.46,4.218c7.764,2.871,14.559,7.88,19.597,14.443L438.631,358.622z"
		/>
</g>
<g>
	<path style="fill:#0063A2;" d="M107.487,350.121c11.801-18.115,34.207-46.777,46.484-57.936c1.187-1.079,2.981,0.31,2.245,1.737
		l-10.355,20.063c-2.065,4.001-5.488,7.135-9.655,8.84l0,0c-3.203,1.31-5.985,3.473-8.045,6.254l-17.319,23.381
		c-0.114,0.154-0.249,0.29-0.401,0.408l0,0C108.614,354.263,106.231,352.05,107.487,350.121z"/>
	<path style="fill:#0063A2;" d="M209.225,261.359c-2.841,2.841-6.764,8.711-9.175,12.496c-1.462,2.294-3.629,4.045-6.174,5l0,0
		c-2.751,1.031-5.054,2.996-6.507,5.549l-13.135,23.086c-0.734,1.288,0.197,2.889,1.68,2.889l0,0c1.496,0,2.425,1.626,1.665,2.915
		l-7.649,12.969c-1.637,2.775-2.5,5.939-2.5,9.161l0,0c0,2.538-0.536,5.048-1.573,7.364l-7.199,16.094l13.108-13.108
		c1.518-1.518,2.372-3.578,2.372-5.725l0,0c0-1.517,0.426-3.004,1.231-4.291l7.725-12.359c0.848-1.358,2.337-2.183,3.939-2.183l0,0
		c1.607,0,3.1-0.831,3.948-2.197l12.169-19.628c1.583-2.554,2.136-5.613,1.546-8.56l-1.092-5.461
		c-0.375-1.875-0.29-3.812,0.247-5.647L209.225,261.359z"/>
	<path style="fill:#0063A2;" d="M265.257,221.098l5.747,17.558c1.076,3.289,0.734,6.879-0.948,9.905l0,0
		c-1.614,2.907-1.998,6.338-1.064,9.529l9.148,31.256c1.119,3.823,3.962,6.902,7.685,8.319l0,0c3.155,1.202,5.703,3.608,7.083,6.688
		l28.733,64.095c1.612,3.598,5.188,5.913,9.13,5.913l0,0c0.109,0,0.182-0.111,0.14-0.211l-8.978-21.547
		c-0.759-1.821-0.344-3.92,1.051-5.315l0,0c1.655-1.655,1.899-4.255,0.578-6.188l-8.758-12.824
		c-2.259-3.307-3.932-6.978-4.947-10.852l-3.318-12.665c-0.511-1.952,0.051-4.028,1.479-5.455l0,0
		c1.833-1.833,2.192-4.675,0.874-6.906l-42.457-71.833C266.039,219.896,265.015,220.359,265.257,221.098z"/>
	<path style="fill:#0063A2;" d="M302.619,241.752l29.293,56.695c1.789,3.462,4.101,6.626,6.857,9.381l14.082,14.082
		c1.206,1.206,2.842,1.884,4.547,1.884l0,0c1.909,0,3.719,0.847,4.94,2.314l31.611,37.933l-27.206-46.352
		c-0.418-0.712-0.508-1.568-0.247-2.351l0,0c0.374-1.123,0.018-2.36-0.897-3.113l-23.149-19.038
		c-1.861-1.531-2.939-3.814-2.939-6.223v-2.56c0-2.043-0.776-4.009-2.171-5.502L302.619,241.752z"/>
	<path style="fill:#0063A2;" d="M363.038,283.235l20.345,19.775c2.343,2.277,3.923,5.222,4.525,8.433l0,0
		c0.411,2.19,1.279,4.268,2.547,6.099l12.541,18.094c0.394,0.568-0.378,1.213-0.867,0.724l-30.883-30.883
		c-1.817-1.817-2.839-4.283-2.839-6.853v-1.504c0-1.79-0.496-3.545-1.433-5.072l-4.926-8.023
		C361.656,283.387,362.499,282.712,363.038,283.235z"/>
</g>
<g>
</g>
<g>
</g>
<g>
</g>
<g>
</g>
<g>
</g>
<g>
</g>
<g>
</g>
<g>
</g>
<g>
</g>
<g>
</g>
<g>
</g>
<g>
</g>
<g>
</g>
<g>
</g>
<g>
</g>
</svg>
