<?xml version="1.0" encoding="iso-8859-1"?>
<!-- Generator: Adobe Illustrator 19.0.0, SVG Export Plug-In . SVG Version: 6.00 Build 0)  -->
<svg version="1.1" id="Capa_1" xmlns="http://www.w3.org/2000/svg" xmlns:xlink="http://www.w3.org/1999/xlink" x="0px" y="0px"
	 viewBox="0 0 512 512" style="enable-background:new 0 0 512 512;" xml:space="preserve">
<path style="fill:#333333;" d="M512,256c0,9.164-0.481,18.202-1.421,27.115c-0.397,3.762-0.867,7.502-1.431,11.212
	C490.653,417.531,384.355,512,256,512C126.934,512,20.177,416.486,2.56,292.279C0.867,280.43,0,268.319,0,256
	c0-7.837,0.355-15.59,1.045-23.249c1.557-17.272,4.827-34.053,9.634-50.166C40.845,81.659,131.574,6.886,240.692,0.449
	C245.76,0.146,250.859,0,256,0C397.385,0,512,114.615,512,256z"/>
<path style="fill:#444444;" d="M352.831,161.541c0,94.835-76.884,171.719-171.719,171.719c-87.709,0-160.057-65.766-170.433-150.674
	C40.845,81.659,131.574,6.886,240.692,0.449C306.155,24.67,352.831,87.656,352.831,161.541z"/>
<circle style="fill:#4C4C4C;" cx="181.112" cy="161.541" r="109.369"/>
<circle style="fill:#5B5B5B;" cx="181.112" cy="161.541" r="37.616"/>
<g>
	<circle style="fill:#F2F2F2;" cx="181.112" cy="161.541" r="18.808"/>
	<path style="fill:#F2F2F2;" d="M255.907,399.228c-75.523,0-136.966-61.442-136.966-136.965c0-34.982,13.182-68.28,37.118-93.759
		c25.796-27.458,62.189-43.207,99.847-43.207c1.12,0,2.24,0.011,3.348,0.04c1.67,0.041,3.313,0.111,4.882,0.208l0.046,0.002
		c13.311,0.79,26.369,3.505,38.822,8.069l0.536,0.195c11.878,4.404,23.105,10.458,33.365,17.995
		c35.044,25.739,55.966,67.031,55.966,110.455c0,40.224-17.585,78.259-48.245,104.35
		C319.912,387.645,288.403,399.228,255.907,399.228z"/>
</g>
<path style="fill:#3F7CB9;" d="M389.738,262.263c0,40.841-18.296,77.415-47.142,101.962c-23.353,19.874-53.621,31.868-86.689,31.868
	c-73.914,0-133.831-59.918-133.831-133.831c0-35.443,13.774-67.669,36.268-91.612c24.413-25.986,59.092-42.218,97.563-42.218
	c1.093,0,2.186,0.012,3.267,0.039c1.618,0.039,3.224,0.106,4.818,0.206h0.005c13.445,0.797,26.359,3.586,38.448,8.075h0.005
	c11.732,4.35,22.685,10.3,32.599,17.583C368.213,178.691,389.738,217.965,389.738,262.263z"/>
<g>
	<path style="fill:#63BD61;" d="M283.32,171.649l-1.673,4.183l-5.019-5.019l-7.667-2.091l5.158-5.158l-7.109,1.534l-3.764-3.764
		l-8.643,2.231l9.061,1.534l-2.928,2.928v2.788l7.249,1.394l-9.479,2.788l-8.922-4.461l-4.461,1.952v3.346l-12.547,1.673
		l-5.577,8.085l-17.566,5.298l1.394,5.577l-2.788,8.922l-1.394-6.413h-3.067l1.394-3.904l-5.298-5.298l-7.249,3.904l-6.692-3.067
		l-12.547,9.758v11.989l6.553,2.928l5.437-5.437h6.971l-6.134,12.268l9.201,1.952l-3.904,11.431l4.74,10.316l-9.479-6.692v-10.037
		l-9.201-1.115l-5.158-9.061l-2.231,2.231l-11.292-11.292l2.231-6.134c-2.51-7.25-1.673-20.633-1.673-20.633
		c-3.485,3.485-4.461,17.566-4.461,17.566c-1.768-8.481,1.171-21.558,3.558-29.995c24.413-25.986,59.092-42.218,97.563-42.218
		c1.093,0,2.186,0.011,3.267,0.039l2.258,6.513l10.455,10.455l-8.922-2.788h-4.461l-5.298-7.806h-5.019l-8.643,5.856l-8.922-1.952
		l-11.431,5.298l12.825,6.971l-1.673,4.88h4.322l3.764-3.764h5.577l-1.534-5.158l3.485-3.485l9.758,5.019h5.577l10.316,10.316
		l7.249,2.788l-2.788,6.134L283.32,171.649z"/>
	<path style="fill:#63BD61;" d="M296.424,139.864l4.74,4.74h-11.71l-2.231,6.413l-13.941-8.364v-6.134h-3.625l-5.66-7.84
		c13.445,0.797,26.359,3.586,38.448,8.075L296.424,139.864z"/>
	<polygon style="fill:#63BD61;" points="191.589,263.657 203.578,305.479 213.895,311.613 208.597,359.29 216.962,379.922 
		223.653,379.922 220.307,373.23 226.72,356.78 234.248,360.684 256.832,343.118 256.832,337.264 271.331,337.264 283.877,324.717 
		284.156,317.189 302.279,306.315 291.823,295.86 281.925,292.653 275.791,278.434 234.387,237.03 221.422,243.303 210.27,232.151 	
		"/>
	<polygon style="fill:#63BD61;" points="198.002,207.894 203.578,207.336 216.126,215.422 220.865,215.422 215.289,219.046 
		204.972,211.519 	"/>
	<path style="fill:#63BD61;" d="M389.738,262.263c0,40.841-18.296,77.415-47.142,101.962l14.889-22.5v-12.547l10.316-6.692v-5.298
		l3.904-10.874l-2.788-5.856l12.268-15.335l-11.71-5.019l-25.372,4.645l-13.941-25.556l11.152-25.93l10.595-20.075l9.758-3.625
		v-3.904l7.528,1.673l4.322-4.322l-8.782-8.782l4.183,6.692l-2.649,2.649l-8.085-8.085l-6.83,6.831v3.346l-1.394,4.74l-11.989-3.625
		l-2.509-12.268l9.479-2.231l-8.643-6.413l3.904-3.904h-6.274v-4.043l-2.37-2.37l-3.625,6.134l-3.346-8.364l4.043-4.043
		l-2.649-2.649h4.183l1.394,5.437h2.649l5.856,5.856l2.928-2.928v-7.529l-4.183,1.394l-5.577-6.692l1.823-7.835
		C368.213,178.691,389.738,217.965,389.738,262.263z"/>
</g>
<g>
	<path style="fill:#F2F2F2;" d="M37.961,229.366c0,0,0,35.129,0,42.381c0,7.241-5.016,21.462-23.98,23.416
		c-5.016,0.512-8.704-0.721-11.421-2.884C0.867,280.43,0,268.319,0,256c0-7.837,0.355-15.59,1.045-23.249l4.577-0.596v42.266
		c0,4.995,4.044,9.028,9.028,9.028c3.281,0,6.248-1.327,8.401-3.479c2.152-2.152,3.48-5.12,3.48-8.401v-41.096L37.961,229.366z"/>
	<polygon style="fill:#F2F2F2;" points="53.298,290.702 53.298,228.526 65.565,226.854 94.562,265.33 94.934,225.831 
		104.414,225.088 104.414,287.727 94.19,287.727 62.591,245.905 62.591,289.958 	"/>
	<polygon style="fill:#F2F2F2;" points="121.7,286.426 121.7,224.53 135.455,223.972 135.455,285.869 	"/>
	<polygon style="fill:#F2F2F2;" points="147.722,223.972 163.15,223.972 182.668,266.166 204.229,222.299 216.869,222.299 
		186.571,284.754 175.605,284.754 	"/>
	<polygon style="fill:#F2F2F2;" points="280.067,233.08 280.067,221.928 241.776,221.928 226.72,221.928 226.72,233.08 
		226.72,246.649 226.72,257.801 226.72,272.671 226.72,283.825 241.776,283.825 280.067,283.825 280.067,272.671 241.776,272.671 
		241.776,257.801 267.985,257.801 267.985,246.649 241.776,246.649 241.776,233.08 	"/>
	<path style="fill:#F2F2F2;" d="M333.969,259.474c0,0,14.13-4.645,14.13-16.913s-7.066-20.633-16.545-20.633h-40.149v61.897h14.314
		v-22.862h11.894l15.798,23.788h16.545L333.969,259.474z M324.958,249.621h-19.239v-15.798h19.239c2.181,0,4.155,0.881,5.582,2.314
		c1.427,1.427,2.314,3.407,2.314,5.587C332.853,246.086,329.318,249.621,324.958,249.621z"/>
	<path style="fill:#F2F2F2;" d="M360.551,266.91c0,0,20.447,13.011,33.272,7.62c4.647-2.045,3.718-8.922-8.364-12.082
		c-12.082-3.16-28.811-11.338-26.394-26.022s23.234-20.261,46.841-7.62v13.197c0,0-13.755-9.479-25.651-7.992
		s-4.461,8.922,1.673,11.152c6.134,2.231,32.157,8.55,28.439,28.253c-3.718,19.703-31.657,16.295-50.186,7.25L360.551,266.91z"/>
	<path style="fill:#F2F2F2;" d="M451.628,226.759h-9.479L415.94,287.54l12.084,0.558l5.019-12.452l25.651,1.115l4.088,13.941h12.825
		L451.628,226.759z M437.877,264.493l8.175-18.96l8.181,20.075L437.877,264.493z"/>
	<path style="fill:#F2F2F2;" d="M510.579,283.115c-0.397,3.762-0.867,7.502-1.431,11.212l-22.016-1.39v-63.572l10.971,0.93v51.482
		L510.579,283.115z"/>
</g>
<g>
</g>
<g>
</g>
<g>
</g>
<g>
</g>
<g>
</g>
<g>
</g>
<g>
</g>
<g>
</g>
<g>
</g>
<g>
</g>
<g>
</g>
<g>
</g>
<g>
</g>
<g>
</g>
<g>
</g>
</svg>
